<?xml version="1.0" encoding="UTF-8"?>
<COLLADA xmlns="http://www.collada.org/2005/11/COLLADASchema" version="1.4.1">
    <asset>
        <contributor>
            <author>VCGLab</author>
            <authoring_tool>VCGLib | MeshLab</authoring_tool>
        </contributor>
        <created>Mon Jul 6 22:41:15 2026 GMT</created>
        <modified>Mon Jul 6 22:41:15 2026 GMT</modified>
        <up_axis>Y_UP</up_axis>
    </asset>
    <library_geometries>
        <geometry id="shape0-lib" name="shape0">
            <mesh>
                <source id="shape0-lib-positions" name="position">
                    <float_array id="shape0-lib-positions-array" count="4452">-0.0204407 0.029218 0.0870553 -0.0205739 0.0313561 0.0872782 -0.0184283 0.0313561 0.0885611 -0.0180363 0.03337 0.0879056 -0.018295 0.029218 0.0883383 -0.0178833 0.0278719 0.0876497 -0.0198128 0.0274454 0.0860052 -0.0176671 0.0274454 0.0872882 -0.0188341 0.0264444 0.0843684 -0.0166884 0.0264444 0.0856513 -0.0182815 0.0263137 0.0834441 -0.0155831 0.0264444 0.0838027 -0.0146044 0.0274454 0.0821659 -0.0167958 0.0273685 0.0809595 -0.0177288 0.0264444 0.0825198 -0.014612 0.0341951 0.0821787 -0.0165384 0.0337655 0.0805289 -0.0142352 0.03337 0.0815485 -0.0163809 0.03337 0.0802655 -0.0138433 0.0313561 0.080893 -0.015989 0.0313561 0.07961 -0.0139765 0.029218 0.0811158 -0.0161222 0.029218 0.0798328 -0.0167501 0.0274454 0.0808829 -0.020182 0.03337 0.0866227 -0.0200245 0.0337655 0.0863593 -0.017209 0.0347982 0.0865219 -0.0193547 0.0347982 0.085239 -0.0161358 0.0353137 0.084727 -0.0182815 0.0353137 0.0834441 -0.0150626 0.0347982 0.0829322 -0.0172083 0.0347982 0.0816492 -0.0167577 0.0341951 0.0808957 -0.0432339 0.0459453 0.0277451 -0.0174856 0.0394453 0.0431407 -0.0037531 0.0459453 0.0513516 -0.0168418 0.0392444 0.0435255 -0.0163706 0.0386953 0.0438073 -0.028214 0.0239453 0.0367258 -0.0174856 0.0224453 0.0431407 -0.0181293 0.0226463 0.0427558 -0.0174856 0.0254453 0.0431407 -0.0168418 0.0252444 0.0435255 -0.0163706 0.0246953 0.0438073 -0.0037531 0.0159453 0.0513516 -0.0161981 0.0239453 0.0439104 -0.0163706 0.0231953 0.0438073 -0.0295014 0.0254453 0.0359561 -0.0168418 0.0366463 0.0435255 -0.0301452 0.0252444 0.0355712 -0.0174856 0.0364453 0.0431407 -0.0161981 0.0379453 0.0439104 -0.0163706 0.0371953 0.0438073 -0.0186005 0.0231953 0.042474 -0.018773 0.0239453 0.0423709 -0.0283865 0.0246953 0.0366227 -0.0186005 0.0246953 0.042474 -0.0181293 0.0252444 0.0427558 -0.0288577 0.0252444 0.036341 -0.0295014 0.0394453 0.0359561 -0.0288577 0.0392444 0.036341 -0.0186005 0.0371953 0.042474 -0.0283865 0.0386953 0.0366227 -0.0181293 0.0366463 0.0427558 -0.028214 0.0379453 0.0367258 -0.0283865 0.0371953 0.0366227 -0.0288577 0.0366463 0.036341 -0.0306164 0.0246953 0.0352894 -0.0307889 0.0239453 0.0351863 -0.0432339 0.0159453 0.0277451 -0.0306164 0.0231953 0.0352894 -0.0306164 0.0386953 0.0352894 -0.0301452 0.0392444 0.0355712 -0.0283865 0.0231953 0.0366227 -0.0168418 0.0226463 0.0435255 -0.0288577 0.0226463 0.036341 -0.0295014 0.0224453 0.0359561 -0.0301452 0.0226463 0.0355712 -0.0295014 0.0364453 0.0359561 -0.0301452 0.0366463 0.0355712 -0.0306164 0.0371953 0.0352894 -0.0307889 0.0379453 0.0351863 -0.018773 0.0379453 0.0423709 -0.0186005 0.0386953 0.042474 -0.0181293 0.0392444 0.0427558 -0.0760155 0.0234453 0.064059 -0.0767845 0.027063 0.0653451 -0.0706823 0.0293137 0.0551395 -0.0708886 0.0308137 0.0554844 -0.0747921 0.0203387 0.062013 -0.0701188 0.0282156 0.054197 -0.0731979 0.0179549 0.0593467 -0.0713413 0.0164564 0.0562417 -0.069349 0.0278137 0.0529096 -0.069349 0.0159453 0.0529096 -0.0685792 0.0282156 0.0516222 -0.0506178 0.0159453 0.0215824 -0.0680157 0.0293137 0.0506797 -0.0495914 0.0164812 0.0198659 -0.0678094 0.0308137 0.0503348 -0.04884 0.0179453 0.0186093 -0.0701188 0.0334117 0.054197 -0.0713413 0.0454342 0.0562417 -0.069349 0.0338137 0.0529096 -0.069349 0.0459453 0.0529096 -0.0685792 0.0334117 0.0516222 -0.0706823 0.0323137 0.0551395 -0.0747921 0.0415519 0.062013 -0.0731979 0.0439357 0.0593467 -0.0770468 0.0309453 0.0657838 -0.0767845 0.0348276 0.0653451 -0.0760155 0.0384453 0.064059 -0.0680157 0.0323137 0.0506797 -0.0506178 0.0459453 0.0215824 -0.0495914 0.0454094 0.0198659 -0.04884 0.0439453 0.0186093 -0.048565 0.0419453 0.0181493 -0.048565 0.0199453 0.0181493 -0.00180631 0.0159453 0.0548459 -0.00231156 0.0159453 0.0528379 0.00517032 0.0159453 0.0549394 -0.00237273 0.0159453 0.0568375 -0.0646285 0.0159453 0.0557321 -0.0487197 0.0159453 0.0291255 -0.0472334 0.0159453 0.0276839 -0.0168022 0.0159453 0.0809701 -0.0135609 0.0159453 0.0862666 -0.0182815 0.0159453 0.0834441 -0.0452255 0.0159453 0.0271787 -0.0084466 0.0299879 0.0777131 0.00722306 0.0199453 0.0515063 -0.00858611 0.0332685 0.0779464 0.00722306 0.0419453 0.0515063 -0.0186752 0.0299879 0.0948201 -0.0185357 0.0332685 0.0945868 -0.0209964 0.0348276 0.0987021 0.00694804 0.0179453 0.0519663 0.00619669 0.0164812 0.0532229 -0.00886131 0.0267967 0.0784067 -0.0202274 0.0384453 0.097416 -0.0178571 0.0362832 0.0934518 -0.0190041 0.0415519 0.09537 -0.016713 0.0387051 0.0915383 -0.0174098 0.0439357 0.0927037 -0.0152272 0.0402718 0.0890534 -0.0155533 0.0454342 0.0895987 0.00517032 0.0459453 0.0549394 -0.0135609 0.0459453 0.0862666 -0.0118946 0.0402718 0.0834798 -0.0097853 0.0240409 0.079952 -0.0111184 0.0220189 0.0821816 -0.0127162 0.0209501 0.0848539 -0.0155533 0.0164564 0.0895987 -0.0144056 0.0209501 0.0876793 -0.0174098 0.0179549 0.0927037 -0.0160034 0.0220189 0.0903516 -0.0190041 0.0203387 0.09537 -0.0173365 0.0240409 0.0925812 -0.0202274 0.0234453 0.097416 -0.0182605 0.0267967 0.0941265 -0.0209964 0.027063 0.0987021 -0.0212587 0.0309453 0.0991408 -0.0135609 0.0408137 0.0862666 0.00694804 0.0439453 0.0519663 0.00619669 0.0454094 0.0532229 -0.00926471 0.0362832 0.0790814 -0.0104089 0.0387051 0.0809949 -0.0646285 0.0459453 0.0557321 -0.0487197 0.0459453 0.0291255 -0.0472334 0.0459453 0.0276839 -0.0452255 0.0459453 0.0271787 -0.00231156 0.0459453 0.0528379 -0.00180631 0.0459453 0.0548459 -0.00237273 0.0459453 0.0568375 -0.0168022 0.0459453 0.0809701 -0.0182815 0.0459453 0.0834441 -0.0260352 0.0366463 0.0316204 -0.015778 0.0386953 0.0377535 -0.0159505 0.0379453 0.0376503 -0.014663 0.0224453 0.0384201 -0.0140193 0.0226463 0.038805 -0.0135481 0.0231953 0.0390868 -0.0266789 0.0394453 0.0312355 -0.0273226 0.0392444 0.0308506 -0.0277939 0.0386953 0.0305689 -0.0277939 0.0231953 0.0305689 -0.0273226 0.0226463 0.0308506 -0.0266789 0.0224453 0.0312355 -0.0153067 0.0252444 0.0380352 -0.015778 0.0246953 0.0377535 -0.0260352 0.0226463 0.0316204 -0.0159505 0.0239453 0.0376503 -0.015778 0.0231953 0.0377535 -0.0153067 0.0226463 0.0380352 -0.0277939 0.0246953 0.0305689 -0.0279663 0.0239453 0.0304658 -0.025564 0.0371953 0.0319022 -0.014663 0.0394453 0.0384201 -0.0153067 0.0392444 0.0380352 -0.0135481 0.0371953 0.0390868 -0.0133756 0.0379453 0.0391899 -0.0135481 0.0386953 0.0390868 -0.0140193 0.0392444 0.038805 -0.0253915 0.0379453 0.0320053 -0.025564 0.0386953 0.0319022 -0.0260352 0.0392444 0.0316204 -0.0260352 0.0252444 0.0316204 -0.0266789 0.0254453 0.0312355 -0.0266789 0.0364453 0.0312355 -0.014663 0.0254453 0.0384201 -0.025564 0.0231953 0.0319022 -0.0253915 0.0239453 0.0320053 -0.0140193 0.0366463 0.038805 -0.025564 0.0246953 0.0319022 -0.014663 0.0364453 0.0384201 -0.0153067 0.0366463 0.0380352 -0.0273226 0.0366463 0.0308506 -0.0279663 0.0379453 0.0304658 -0.0277939 0.0371953 0.0305689 -0.0273226 0.0252444 0.0308506 -0.0140193 0.0252444 0.038805 -0.0135481 0.0246953 0.0390868 -0.0133756 0.0239453 0.0391899 -0.015778 0.0371953 0.0377535 -0.0666208 0.0454342 0.0590642 -0.0684774 0.0439357 0.0621692 -0.0700716 0.0415519 0.0648355 -0.0712949 0.0384453 0.0668815 -0.072064 0.0348276 0.0681676 -0.0723262 0.0309453 0.0686063 -0.072064 0.027063 0.0681676 -0.0712949 0.0234453 0.0668815 -0.0700716 0.0203387 0.0648355 -0.0684774 0.0179549 0.0621692 -0.0666208 0.0164564 0.0590642 -0.0630889 0.0308137 0.0531573 -0.0632952 0.0293137 0.0535022 -0.0638587 0.0282156 0.0544447 -0.0646285 0.0278137 0.0557321 -0.0653983 0.0282156 0.0570195 -0.0659618 0.0293137 0.057962 -0.066168 0.0308137 0.0583069 -0.0632952 0.0323137 0.0535022 -0.0638587 0.0334117 0.0544447 -0.0646285 0.0338137 0.0557321 -0.0653983 0.0334117 0.0570195 -0.0659618 0.0323137 0.057962 -0.0202738 0.0164564 0.0867762 -0.0221303 0.0179549 0.0898812 -0.0237246 0.0203387 0.0925475 -0.0249479 0.0234453 0.0945934 -0.0257169 0.027063 0.0958796 -0.0259792 0.0309453 0.0963183 -0.0258473 0.03371 0.0960977 -0.0257169 0.0348276 0.0958796 -0.0249479 0.0384453 0.0945934 -0.0237246 0.0415519 0.0925475 -0.0221303 0.0439357 0.0898812 -0.0202738 0.0454342 0.0867762 -0.018606 0.0367181 0.0839869 -0.0188437 0.0371812 0.0843843 -0.0189306 0.0378137 0.0845298 -0.0176323 0.0378137 0.0823584 -0.0177192 0.0384462 0.0825038 -0.0179569 0.0389092 0.0829012 -0.0182815 0.0390787 0.0834441 -0.018606 0.0389092 0.0839869 -0.0188437 0.0384462 0.0843843 -0.0182815 0.0365487 0.0834441 -0.0179569 0.0367181 0.0829012 -0.0177192 0.0371812 0.0825038 -0.0189306 0.0238137 0.0845298 -0.0188437 0.0231812 0.0843843 -0.0182815 0.0225487 0.0834441 -0.018606 0.0227182 0.0839869 -0.0179569 0.0227182 0.0829012 -0.0177192 0.0231812 0.0825038 -0.0176323 0.0238137 0.0823584 -0.0188437 0.0244462 0.0843843 -0.0221983 0.0297182 0.0899949 -0.0218737 0.0295487 0.089452 -0.0177192 0.0244462 0.0825038 -0.0179569 0.0249092 0.0829012 -0.022436 0.0301812 0.0903923 -0.0225229 0.0308137 0.0905377 -0.022436 0.0314462 0.0903923 -0.0215492 0.0297182 0.0889092 -0.018606 0.0249092 0.0839869 -0.0182815 0.0250787 0.0834441 -0.0213115 0.0301812 0.0885118 -0.0212246 0.0308137 0.0883663 -0.0213115 0.0314462 0.0885118 -0.0215492 0.0319092 0.0889092 -0.0218737 0.0320787 0.089452 -0.0221983 0.0319092 0.0899949 -0.0153383 0.0308137 0.0785219 -0.014127 0.0301812 0.0764959 -0.01404 0.0308137 0.0763504 -0.0152514 0.0314462 0.0783764 -0.0150137 0.0319092 0.077979 -0.0146892 0.0320787 0.0774361 -0.0143646 0.0319092 0.0768933 -0.014127 0.0314462 0.0764959 -0.0152514 0.0301812 0.0783764 -0.0150137 0.0297182 0.077979 -0.0146892 0.0295487 0.0774361 -0.0143646 0.0297182 0.0768933 -0.0155736 0.0384462 0.0837868 -0.0154866 0.0378137 0.0836413 -0.0146519 0.0403865 0.0822453 -0.019728 0.0295487 0.090735 -0.0200526 0.0297182 0.0912779 -0.021045 0.0279005 0.0929376 -0.0212501 0.0299879 0.0932805 -0.0178021 0.0402718 0.0875139 -0.0192878 0.0387051 0.0899987 -0.0167849 0.0378137 0.0858128 -0.0194035 0.0297182 0.0901921 -0.0191658 0.0301812 0.0897947 -0.0190789 0.0308137 0.0896493 -0.0155736 0.0371812 0.0837868 -0.0158112 0.0367181 0.0841842 -0.0161358 0.0365487 0.084727 -0.0164603 0.0367181 0.0852699 -0.016698 0.0371812 0.0856673 -0.016698 0.0384462 0.0856673 -0.0164603 0.0389092 0.0852699 -0.0161358 0.0408137 0.084727 -0.0161358 0.0390787 0.084727 -0.0158112 0.0389092 0.0841842 -0.0191658 0.0314462 0.0897947 -0.0194035 0.0319092 0.0901921 -0.0202903 0.0301812 0.0916753 -0.0203772 0.0308137 0.0918207 -0.0211106 0.0332685 0.0930472 -0.0202903 0.0314462 0.0916753 -0.020432 0.0362832 0.0919123 -0.0200526 0.0319092 0.0912779 -0.019728 0.0320787 0.090735 -0.0158112 0.0249092 0.0841842 -0.0155736 0.0244462 0.0837868 -0.0154866 0.0238137 0.0836413 -0.0136933 0.0220189 0.0806421 -0.0155736 0.0231812 0.0837868 -0.0152911 0.0209501 0.0833144 -0.0158112 0.0227182 0.0841842 -0.0161358 0.0225487 0.084727 -0.0169804 0.0209501 0.0861397 -0.0164603 0.0227182 0.0852699 -0.0185782 0.0220189 0.088812 -0.016698 0.0231812 0.0856673 -0.0199114 0.0240409 0.0910416 -0.0167849 0.0238137 0.0858128 -0.0208354 0.0267967 0.0925869 -0.016698 0.0244462 0.0856673 -0.0164603 0.0249092 0.0852699 -0.0161358 0.0250787 0.084727 -0.0123601 0.0240409 0.0784125 -0.0114361 0.0267967 0.0768672 -0.0110214 0.0299879 0.0761736 -0.0118943 0.0308137 0.0776334 -0.0119813 0.0301812 0.0777788 -0.0122189 0.0297182 0.0781762 -0.0125435 0.0295487 0.0787191 -0.0128681 0.0297182 0.079262 -0.0131057 0.0301812 0.0796594 -0.0131926 0.0308137 0.0798048 -0.0131057 0.0314462 0.0796594 -0.0128681 0.0319092 0.079262 -0.0119813 0.0314462 0.0777788 -0.0111609 0.0332685 0.0764069 -0.0122189 0.0319092 0.0781762 -0.0118395 0.0362832 0.0775418 -0.0125435 0.0320787 0.0787191 -0.0129837 0.0387051 0.0794554 -0.0144694 0.0402718 0.0819402 -0.0161358 0.0225492 0.084727 -0.0144192 0.0225492 0.0857534 -0.0158542 0.0226744 0.0842561 -0.0141376 0.0226744 0.0852825 -0.0156284 0.0230253 0.0838785 -0.0139119 0.0230253 0.0849049 -0.0155031 0.0235323 0.083669 -0.0137865 0.0235323 0.0846953 -0.0155031 0.0240951 0.083669 -0.0137865 0.0240951 0.0846953 -0.0156284 0.0246021 0.0838785 -0.0139119 0.0246021 0.0849049 -0.0158542 0.0249529 0.0842561 -0.0141376 0.0249529 0.0852825 -0.0161358 0.0250782 0.084727 -0.0144192 0.0250782 0.0857534 -0.0164173 0.0249529 0.0851979 -0.0147008 0.0249529 0.0862243 -0.0166431 0.0246021 0.0855756 -0.0149265 0.0246021 0.0866019 -0.0167684 0.0240951 0.0857851 -0.0150519 0.0240951 0.0868115 -0.0167684 0.0235323 0.0857851 -0.0150519 0.0235323 0.0868115 -0.0166431 0.0230253 0.0855756 -0.0149265 0.0230253 0.0866019 -0.0164173 0.0226744 0.0851979 -0.0147008 0.0226744 0.0862243 -0.0118945 0.0308137 0.0776338 -0.010178 0.0308137 0.0786602 -0.0119588 0.0313623 0.0777413 -0.0102422 0.0313623 0.0787676 -0.0121389 0.0318023 0.0780424 -0.0104223 0.0318023 0.0790688 -0.0123991 0.0320465 0.0784776 -0.0106825 0.0320465 0.079504 -0.0126879 0.0320465 0.0789606 -0.0109713 0.0320465 0.079987 -0.0129481 0.0318023 0.0793958 -0.0112315 0.0318023 0.0804221 -0.0131281 0.0313623 0.0796969 -0.0114116 0.0313623 0.0807233 -0.0131924 0.0308137 0.0798044 -0.0114758 0.0308137 0.0808308 -0.0131281 0.030265 0.0796969 -0.0114116 0.030265 0.0807233 -0.0129481 0.029825 0.0793958 -0.0112315 0.029825 0.0804221 -0.0126879 0.0295809 0.0789606 -0.0109713 0.0295809 0.079987 -0.0123991 0.0295809 0.0784776 -0.0106825 0.0295809 0.079504 -0.0121389 0.029825 0.0780424 -0.0104223 0.029825 0.0790688 -0.0119588 0.030265 0.0777413 -0.0102422 0.030265 0.0787676 -0.0161358 0.0390782 0.084727 -0.0144192 0.0390782 0.0857534 -0.0164173 0.0389529 0.0851979 -0.0147008 0.0389529 0.0862243 -0.0166431 0.0386021 0.0855756 -0.0149265 0.0386021 0.0866019 -0.0167684 0.038095 0.0857851 -0.0150519 0.038095 0.0868115 -0.0167684 0.0375323 0.0857851 -0.0150519 0.0375323 0.0868115 -0.0166431 0.0370253 0.0855756 -0.0149265 0.0370253 0.0866019 -0.0164173 0.0366744 0.0851979 -0.0147008 0.0366744 0.0862243 -0.0161358 0.0365492 0.084727 -0.0144192 0.0365492 0.0857534 -0.0158542 0.0366744 0.0842561 -0.0141376 0.0366744 0.0852825 -0.0156284 0.0370253 0.0838785 -0.0139119 0.0370253 0.0849049 -0.0155031 0.0375323 0.083669 -0.0137865 0.0375323 0.0846953 -0.0155031 0.038095 0.083669 -0.0137865 0.038095 0.0846953 -0.0156284 0.0386021 0.0838785 -0.0139119 0.0386021 0.0849049 -0.0158542 0.0389529 0.0842561 -0.0141376 0.0389529 0.0852825 -0.0148041 0.0321127 0.0863971 -0.0151286 0.0321959 0.0869398 -0.015042 0.0316954 0.086795 -0.0151722 0.0311255 0.0870127 -0.0174268 0.0313623 0.0907835 -0.0173626 0.0308137 0.0906761 -0.015189 0.0308137 0.0870408 -0.0151722 0.0305018 0.0870127 -0.0174268 0.030265 0.0907835 -0.0151423 0.0302991 0.0869627 -0.0151311 0.0209104 0.0869441 -0.0176069 0.029825 0.0910847 -0.015679 0.0211197 0.0878604 -0.0185962 0.0313623 0.0927392 -0.0184161 0.0318023 0.092438 -0.0194811 0.0324596 0.0942191 -0.0181559 0.0320465 0.0920029 -0.0176069 0.0318023 0.0910847 -0.0178671 0.0320465 0.0915199 -0.0184161 0.029825 0.092438 -0.0189325 0.0260542 0.0933017 -0.0181559 0.0295809 0.0920029 -0.0184689 0.0246715 0.0925264 -0.0178671 0.0295809 0.0915199 -0.0186604 0.0308137 0.0928467 -0.019551 0.0308137 0.0943362 -0.0185962 0.030265 0.0927392 -0.0194811 0.0291677 0.0942191 -0.019273 0.0275667 0.0938712 -0.0178949 0.0234564 0.0915664 -0.0172261 0.022442 0.0904478 -0.0164806 0.0216559 0.0892011 -0.019273 0.0340607 0.0938712 -0.0189325 0.0355731 0.0933017 -0.0172261 0.0391853 0.0904478 -0.0178949 0.0381709 0.0915664 -0.0184689 0.0369558 0.0925264 -0.0103695 0.0369558 0.0789804 -0.0109435 0.0381709 0.0799405 -0.00933672 0.0321974 0.0772532 -0.0141378 0.0322098 0.0852828 -0.0141813 0.0322403 0.0853556 -0.015679 0.0405077 0.0878604 -0.0164806 0.0399714 0.0892011 -0.014843 0.0407795 0.0864622 -0.0139954 0.0407795 0.0850447 -0.0116123 0.0391853 0.0810591 -0.0123578 0.0399714 0.0823058 -0.0131594 0.0405077 0.0836465 -0.00935735 0.0324596 0.0772877 -0.00956541 0.0340607 0.0776357 -0.00990588 0.0355731 0.0782051 -0.0144997 0.0323055 0.085888 -0.0103695 0.0246715 0.0789804 -0.00990588 0.0260542 0.0782051 -0.00928735 0.0308137 0.0771706 -0.00935735 0.0291677 0.0772877 -0.00956541 0.0275667 0.0776357 -0.0139954 0.0208478 0.0850447 -0.0131594 0.0211197 0.0836465 -0.0123578 0.0216559 0.0823058 -0.0116123 0.022442 0.0810591 -0.0109435 0.0234564 0.0799405 -0.014843 0.0208478 0.0864622 -0.0139041 0.0319284 0.084892 -0.013716 0.0314238 0.0845773 -0.0136494 0.0308137 0.084466 -0.0144997 0.0293219 0.085888 -0.0148041 0.0295146 0.0863971 -0.015042 0.029932 0.086795 -0.013716 0.0302036 0.0845773 -0.0139041 0.029699 0.084892 -0.0141813 0.0293871 0.0853556 -0.0195837 0.0320465 0.0904935 -0.0178643 0.0337977 0.087618 -0.0193235 0.0318023 0.0900583 -0.0181806 0.0329049 0.0881469 -0.0191434 0.0313623 0.0897572 -0.018378 0.0318906 0.0884771 -0.0190791 0.0308137 0.0896497 -0.0184451 0.0308137 0.0885893 -0.0191434 0.030265 0.0897572 -0.018378 0.0297368 0.0884771 -0.0193235 0.029825 0.0900583 -0.0181806 0.0287224 0.0881469 -0.0178643 0.0278296 0.087618 -0.0198724 0.0320465 0.0909765 -0.0209895 0.0340607 0.0928448 -0.0201326 0.0318023 0.0914117 -0.0211976 0.0324596 0.0931928 -0.0203127 0.0313623 0.0917128 -0.0212676 0.0308137 0.0933098 -0.020377 0.0308137 0.0918203 -0.0211976 0.0291677 0.0931928 -0.0203127 0.030265 0.0917128 -0.0209895 0.0275667 0.0928448 -0.0201326 0.029825 0.0914117 -0.0206491 0.0260542 0.0922754 -0.0198724 0.0295809 0.0909765 -0.0176194 0.0212407 0.0872084 -0.0181972 0.0216559 0.0881747 -0.0176256 0.0273754 0.0872188 -0.0189426 0.022442 0.0894214 -0.0195837 0.0295809 0.0904935 -0.0196115 0.0234564 0.09054 -0.0201855 0.0246715 0.0915001 -0.0143655 0.0337035 0.0817664 -0.0173956 0.0211197 0.086834 -0.0165595 0.0208478 0.0854358 -0.015712 0.0208478 0.0840183 -0.0138935 0.0297368 0.080977 -0.0138264 0.0308137 0.0808648 -0.0138935 0.0318906 0.080977 -0.0140909 0.0329049 0.0813072 -0.0112226 0.0337018 0.07651 -0.0110739 0.0324596 0.0762613 -0.0110039 0.0308137 0.0761443 -0.0110739 0.0291677 0.0762613 -0.0164141 0.0263465 0.0851926 -0.0169547 0.0266061 0.0860966 -0.0174476 0.0271102 0.0869211 -0.014876 0.0211197 0.0826201 -0.0140743 0.0216559 0.0812794 -0.0116224 0.0260542 0.0771787 -0.011282 0.0275667 0.0766093 -0.012086 0.0246715 0.077954 -0.0126601 0.0234564 0.0789141 -0.0133289 0.022442 0.0800327 -0.0158574 0.0263465 0.0842615 -0.0153169 0.0266061 0.0833575 -0.0148239 0.0271102 0.082533 -0.0144072 0.0278296 0.0818361 -0.0140909 0.0287224 0.0813072 -0.012086 0.0369558 0.077954 -0.0116224 0.0355731 0.0771787 -0.0174476 0.0345171 0.0869211 -0.015712 0.0407795 0.0840183 -0.0165595 0.0407795 0.0854358 -0.0173956 0.0405077 0.086834 -0.0181972 0.0399714 0.0881747 -0.011282 0.0340607 0.0766093 -0.0169547 0.0350212 0.0860966 -0.0164141 0.0352809 0.0851926 -0.0158574 0.0352809 0.0842615 -0.0153169 0.0350212 0.0833575 -0.0148239 0.0345171 0.082533 -0.0144072 0.0337977 0.0818361 -0.014876 0.0405077 0.0826201 -0.0140743 0.0399714 0.0812794 -0.0133289 0.0391853 0.0800327 -0.0126601 0.0381709 0.0789141 -0.0206491 0.0355731 0.0922754 -0.0201855 0.0369558 0.0915001 -0.0196115 0.0381709 0.09054 -0.0189426 0.0391853 0.0894214 -0.0197129 0.031918 0.0858381 -0.0196484 0.0314976 0.0857302 -0.0198089 0.0311897 0.0859986 -0.018937 0.0335282 0.0845404 -0.0190376 0.0331356 0.0847088 -0.0192628 0.0331252 0.0850853 -0.0171592 0.02876 0.0815671 -0.0165529 0.0278296 0.0805531 -0.0169696 0.0271102 0.0812501 -0.019527 0.032577 0.0855272 -0.0195181 0.0321385 0.0855124 -0.0167419 0.0308137 0.0808692 -0.0168813 0.0311583 0.0811024 -0.0167903 0.0315597 0.0809501 -0.0193102 0.0326962 0.0851646 -0.0192628 0.0285021 0.0850853 -0.0190376 0.0284918 0.0847088 -0.018937 0.0280992 0.0845404 -0.0178057 0.0279605 0.0826484 -0.0176806 0.0283254 0.0824391 -0.0174565 0.0282807 0.0820644 -0.0171397 0.0291973 0.0815346 -0.0169323 0.0293684 0.0811877 -0.0162366 0.0287224 0.0800242 -0.0174565 0.0333467 0.0820644 -0.0176806 0.0333019 0.0824391 -0.0178057 0.0336668 0.0826484 -0.019527 0.0290503 0.0855272 -0.0193102 0.0289312 0.0851646 -0.0181848 0.0278196 0.0832824 -0.018017 0.0281124 0.0830018 -0.0169693 0.0298013 0.0812496 -0.0167903 0.0300676 0.0809501 -0.0160392 0.0297368 0.0796941 -0.0168813 0.030469 0.0811024 -0.0171592 0.0328673 0.0815671 -0.0173819 0.0329326 0.0819396 -0.0185699 0.0337605 0.0839266 -0.0187176 0.0334291 0.0841734 -0.0197129 0.0297093 0.0858381 -0.0195181 0.0294889 0.0855124 -0.0187176 0.0281983 0.0841734 -0.0185699 0.0278668 0.0839266 -0.0183701 0.0280691 0.0835923 -0.0205237 0.0297368 0.0871941 -0.0203263 0.0287224 0.0868639 -0.02001 0.0278296 0.086335 -0.0195933 0.0271102 0.0856381 -0.0191004 0.0266061 0.0848137 -0.0185598 0.0263465 0.0839096 -0.0180031 0.0263465 0.0829785 -0.0174626 0.0266061 0.0820745 -0.0173819 0.0286948 0.0819396 -0.0169323 0.0322589 0.0811877 -0.0171397 0.0324301 0.0815346 -0.018017 0.033515 0.0830018 -0.0181848 0.0338078 0.0832824 -0.0169693 0.031826 0.0812496 -0.0183701 0.0335582 0.0835923 -0.0196484 0.0301298 0.0857302 -0.0198089 0.0304377 0.0859986 -0.0196927 0.0308137 0.0858044 -0.0205908 0.0308137 0.0873063 -0.0205237 0.0318906 0.0871941 -0.0203263 0.0329049 0.0868639 -0.02001 0.0337977 0.086335 -0.0195933 0.0345171 0.0856381 -0.0191004 0.0350212 0.0848137 -0.0185598 0.0352809 0.0839096 -0.0180031 0.0352809 0.0829785 -0.0174626 0.0350212 0.0820745 -0.0169696 0.0345171 0.0812501 -0.0165529 0.0337977 0.0805531 -0.0162366 0.0329049 0.0800242 -0.0160392 0.0318906 0.0796941 -0.0159721 0.0308137 0.0795818 -0.0166887 0.0308137 0.0876005 -0.0160473 0.0308137 0.0865276 -0.0160304 0.0305018 0.0864995 -0.0143779 0.0286948 0.0837357 -0.0144525 0.0282807 0.0838606 -0.0146766 0.0283254 0.0842353 -0.0157136 0.0281983 0.0859696 -0.015933 0.0280992 0.0863365 -0.0160337 0.0284918 0.0865049 -0.0163062 0.0326962 0.0869608 -0.0162588 0.0331252 0.0868815 -0.0160337 0.0331356 0.0865049 -0.0165142 0.0321385 0.0873085 -0.016523 0.032577 0.0873233 -0.015013 0.033515 0.084798 -0.0150396 0.0322403 0.0848424 -0.0153579 0.0323055 0.0853748 -0.0138773 0.0311583 0.0828986 -0.0137379 0.0308137 0.0826654 -0.0138773 0.030469 0.0828986 -0.0148017 0.0279605 0.0844446 -0.015013 0.0281124 0.084798 -0.0156624 0.0295146 0.0858839 -0.0153579 0.0293219 0.0853748 -0.0162588 0.0285021 0.0868815 -0.0163062 0.0289312 0.0869608 -0.0141357 0.0324301 0.0833307 -0.0139284 0.0322589 0.0829839 -0.0139653 0.031826 0.0830457 -0.0137863 0.0300676 0.0827463 -0.0139653 0.0298013 0.0830457 -0.0151808 0.0278196 0.0850786 -0.0153661 0.0280691 0.0853884 -0.0159002 0.029932 0.0862818 -0.0165142 0.0294889 0.0873085 -0.0167089 0.0297093 0.0876343 -0.0166444 0.0301298 0.0875263 -0.0157136 0.0334291 0.0859696 -0.015566 0.0337605 0.0857227 -0.0153661 0.0335582 0.0853884 -0.0145743 0.0314238 0.0840641 -0.0145077 0.0308137 0.0839528 -0.0145743 0.0302036 0.0840641 -0.0160304 0.0311255 0.0864995 -0.0166444 0.0314976 0.0875263 -0.0167089 0.031918 0.0876343 -0.0139284 0.0293684 0.0829839 -0.0141357 0.0291973 0.0833307 -0.0147624 0.029699 0.0843788 -0.015566 0.0278668 0.0857227 -0.0150396 0.0293871 0.0848424 -0.0141552 0.02876 0.0833633 -0.0168049 0.0304377 0.0877948 -0.016523 0.0290503 0.0873233 -0.0156624 0.0321127 0.0858839 -0.0159002 0.0316954 0.0862818 -0.0168049 0.0311897 0.0877948 -0.0151808 0.0338078 0.0850786 -0.015933 0.0335282 0.0863365 -0.0148017 0.0336668 0.0844446 -0.0146766 0.0333019 0.0842353 -0.0147624 0.0319284 0.0843788 -0.0143779 0.0329326 0.0837357 -0.0141552 0.0328673 0.0833633 -0.0137863 0.0315597 0.0827463 -0.0144525 0.0333467 0.0838606 0.00421358 0.0604453 -0.00157979 0.00311086 0.0604453 -0.00325154 0.00311086 0.0579453 -0.00325154 0.001392 0.0579453 -0.00427929 0.001392 0.0604453 -0.00427929 -0.000602568 0.0579453 -0.00445947 -0.000602568 0.0604453 -0.00445947 -0.000727134 0.0604453 -0.00444087 -0.00247779 0.0579453 -0.0037564 -0.00247779 0.0604453 -0.0037564 -0.00386225 0.0579453 -0.00230933 -0.00386225 0.0604453 -0.00230933 -0.00448175 0.0579453 -0.000404867 -0.00448175 0.0604453 -0.000404867 -0.00443037 0.0579453 0.000788545 -0.00443037 0.0604453 0.000788545 -0.00425614 0.0604453 0.00146125 -0.00421358 0.0579453 0.00157979 -0.00421358 0.0604453 0.00157979 -0.00311086 0.0579453 0.00325154 -0.00311086 0.0604453 0.00325154 -0.001392 0.0579453 0.00427929 -0.001392 0.0604453 0.00427929 0.000602568 0.0579453 0.00445947 0.000602568 0.0604453 0.00445947 0.000727134 0.0579453 0.00444086 0.00140218 0.0604453 0.00427597 0.00421358 0.0579453 -0.00157979 0.00425614 0.0579453 -0.00146125 0.00448175 0.0604453 0.000404867 0.00448175 0.0579453 0.000404867 0.00386225 0.0604453 0.00230933 0.00386225 0.0579453 0.00230933 0.00247779 0.0604453 0.0037564 0.00247779 0.0579453 0.0037564 0.00140218 0.0579453 0.00427597 -0.0307226 0.00794533 0.0224095 -0.0245001 0.0226463 0.0261301 -0.0238564 0.0224453 0.026515 -0.0232127 0.0392444 0.0268999 -0.0307226 0.0539453 0.0224095 -0.0129555 0.0386953 0.0330329 -0.0131279 0.0379453 0.0329298 -0.0129555 0.0371953 0.0330329 -0.0238564 0.0254453 0.026515 -0.0249714 0.0371953 0.0258484 -0.0251438 0.0379453 0.0257452 -0.0249714 0.0386953 0.0258484 -0.0238564 0.0394453 0.026515 -0.0245001 0.0392444 0.0261301 -0.0232127 0.0366463 0.0268999 -0.0227415 0.0371953 0.0271817 -0.022569 0.0379453 0.0272848 -0.0227415 0.0386953 0.0271817 -0.0118405 0.0254453 0.0336996 -0.0124842 0.0252444 0.0333147 -0.0049743 0.0539453 0.0378051 -0.0238564 0.0364453 0.026515 -0.0245001 0.0366463 0.0261301 -0.0245001 0.0252444 0.0261301 -0.0249714 0.0246953 0.0258484 -0.0251438 0.0239453 0.0257452 -0.0249714 0.0231953 0.0258484 -0.0232127 0.0226463 0.0268999 -0.0131279 0.0239453 0.0329298 -0.0129555 0.0231953 0.0330329 -0.0124842 0.0226463 0.0333147 -0.0049743 0.00794533 0.0378051 -0.0118405 0.0224453 0.0336996 -0.0111968 0.0226463 0.0340845 -0.0232127 0.0252444 0.0268999 -0.0129555 0.0246953 0.0330329 -0.0111968 0.0252444 0.0340845 -0.0107256 0.0231953 0.0343662 -0.0105531 0.0239453 0.0344694 -0.0107256 0.0246953 0.0343662 -0.0227415 0.0231953 0.0271817 -0.022569 0.0239453 0.0272848 -0.0227415 0.0246953 0.0271817 -0.0107256 0.0371953 0.0343662 -0.0105531 0.0379453 0.0344694 -0.0107256 0.0386953 0.0343662 -0.0124842 0.0366463 0.0333147 -0.0118405 0.0364453 0.0336996 -0.0111968 0.0366463 0.0340845 -0.0111968 0.0392444 0.0340845 -0.0118405 0.0394453 0.0336996 -0.0124842 0.0392444 0.0333147 0.0137615 -0.00155467 -0.00615484 0.014854 -0.00155467 -0.00270773 0.00262071 -0.00155467 -0.0014601 0.00299965 -0.00155467 4.58756e-05 0.00153955 -0.00155467 -0.00257484 0.00930645 -0.00155467 -0.0117849 0.0118758 -0.00155467 -0.00924033 4.58751e-05 -0.00155467 -0.00299965 0.00274529 -0.00155467 -0.0146997 0.00620283 -0.00155467 -0.0136406 -0.0014601 -0.00155467 -0.00262071 -0.0044189 -0.00155467 -0.0142315 -0.000865228 -0.00155467 -0.0149005 0.0150898 -0.00155467 0.000900672 0.0144553 -0.00155467 0.00446066 0.00257483 -0.00155467 0.00153955 0.0129872 -0.00155467 0.00776533 0.0014601 -0.00155467 0.00262071 -0.00820111 -0.00155467 0.0409188 -0.00975987 -0.00155467 0.0409971 -0.0112299 -0.00155467 0.0404729 -0.0312696 -0.00155467 0.0281359 -0.0319384 -0.00155467 0.0267258 -0.00153955 -0.00155467 0.00257483 -0.0320166 -0.00155467 0.025167 -0.00262071 -0.00155467 0.0014601 -0.0314924 -0.00155467 0.0236969 -0.00299965 -0.00155467 -4.58755e-05 -0.0127612 -0.00155467 -0.00763021 -0.00257483 -0.00155467 -0.00153955 -0.0105449 -0.00155467 -0.0104875 -0.00770919 -0.00155467 -0.0127314 -4.5875e-05 -0.00155467 0.00299965 -0.00574407 -0.00155467 0.0390925 -0.00679095 -0.00155467 0.04025 -0.030112 -0.00155467 0.0291828 -0.0305664 0.00641459 0.0221482 -0.0301214 0.0051169 0.021404 -0.0294555 0.0576408 0.0202902 -0.0301214 0.0567738 0.021404 -0.0314924 0.0634453 0.0236969 -0.0286699 0.0579453 0.0189764 -0.0127612 0.00394533 -0.00763021 -0.0286699 0.00394533 0.0189764 -0.0294555 0.00424981 0.0202902 -0.0142404 0.0579453 -0.00515622 -0.0127612 0.0634453 -0.00763021 -0.0127612 0.0579453 -0.00763021 -0.0305664 0.0554761 0.0221482 0.0099823 0.0634453 -0.000594723 0.00971411 0.0634453 0.00237403 0.0144553 0.0634453 0.00446066 0.0129872 0.0634453 0.00776533 0.00858278 0.0634453 0.00513185 0.00668884 0.0634453 0.00743367 -0.00574407 0.0634453 0.0390925 0.0150898 0.0634453 0.000900672 0.014854 0.0634453 -0.00270773 0.00936352 0.0634453 -0.00351064 0.0137615 0.0634453 -0.00615484 0.00791274 0.0634453 -0.00611461 0.0118758 0.0634453 -0.00924033 0.00575889 0.0634453 -0.00817528 0.00930645 0.0634453 -0.0117849 0.00309333 0.0634453 -0.00950954 -0.0087357 0.0634453 0.00486698 -0.00978217 0.0634453 0.00207586 -0.00995944 0.0634453 -0.000899705 -0.00925178 0.0634453 -0.00379533 -0.0105449 0.0634453 -0.0104875 -0.00772206 0.0634453 -0.00635373 -0.00770919 0.0634453 -0.0127314 -0.00550619 0.0634453 -0.00834756 -0.0044189 0.0634453 -0.0142315 -0.00280108 0.0634453 -0.00959968 -0.000865228 0.0634453 -0.0149005 0.000152919 0.0634453 -0.00999883 0.00274529 0.0634453 -0.0146997 0.00620283 0.0634453 -0.0136406 -0.030112 0.0634453 0.0291828 -0.0112299 0.0634453 0.0404729 -0.00447611 0.0634453 0.00894229 -0.00691303 0.0634453 0.00722565 -0.0319384 0.0634453 0.0267258 -0.0312696 0.0634453 0.0281359 -0.0320166 0.0634453 0.025167 0.00420056 0.0634453 0.00907498 0.00133904 0.0634453 0.00990994 -0.00679095 0.0634453 0.04025 -0.00164146 0.0634453 0.00986436 -0.00820111 0.0634453 0.0409188 -0.00975987 0.0634453 0.0409971 -0.00481804 0.0554761 0.0375437 -0.00437306 0.0567738 0.0367995 0.0129872 0.00394533 0.00776533 -0.00370711 0.0576408 0.0356858 -0.00292156 0.0579453 0.034372 0.0115079 0.0579453 0.0102393 0.0129872 0.0579453 0.00776533 -0.00292156 0.00394533 0.034372 -0.00370711 0.00424981 0.0356858 -0.00437306 0.0051169 0.0367995 -0.00481804 0.00641459 0.0375437 0.0144553 0.00394533 0.00446066 0.0150898 0.00394533 0.000900672 0.014854 0.00394533 -0.00270773 0.0137615 0.00394533 -0.00615484 0.0118758 0.00394533 -0.00924033 0.00930645 0.00394533 -0.0117849 0.00620283 0.00394533 -0.0136406 0.00274529 0.00394533 -0.0146997 -0.000865228 0.00394533 -0.0149005 -0.0044189 0.00394533 -0.0142315 -0.00770919 0.00394533 -0.0127314 -0.0105449 0.00394533 -0.0104875 0.00153955 0.00394533 -0.00257484 4.58751e-05 0.00394533 -0.00299965 0.00299965 0.00394533 4.58756e-05 -0.00257483 0.00394533 -0.00153955 -0.0014601 0.00394533 -0.00262071 0.00262071 0.00394533 -0.0014601 0.00257483 0.00394533 0.00153955 0.0014601 0.00394533 0.00262071 -4.5875e-05 0.00394533 0.00299965 -0.00153955 0.00394533 0.00257483 -0.00262071 0.00394533 0.0014601 -0.00299965 0.00394533 -4.58755e-05 -0.0105449 0.0579453 -0.0104875 -0.00770919 0.0579453 -0.0127314 -0.0044189 0.0579453 -0.0142315 -0.000865228 0.0579453 -0.0149005 0.00274529 0.0579453 -0.0146997 0.00620283 0.0579453 -0.0136406 0.00930645 0.0579453 -0.0117849 0.0100569 0.0579453 -0.0111627 0.0118758 0.0579453 -0.00924033 0.0137615 0.0579453 -0.00615484 0.014854 0.0579453 -0.00270773 0.0150898 0.0579453 0.000900672 0.0144553 0.0579453 0.00446066 0.00665713 0.0579453 0.00250657 0.00602729 0.0579453 0.00232744 0.00539227 0.0579453 0.00248723 0.00492223 0.0579453 0.00294311 0.0047431 0.0579453 0.00357295 0.00490288 0.0579453 0.00420797 0.00535877 0.0579453 0.00467801 0.00711301 0.0579453 0.00297662 0.0072728 0.0579453 0.00361164 0.00709367 0.0579453 0.00424147 0.00662362 0.0579453 0.00469736 0.0059886 0.0579453 0.00485714 -0.00662362 0.0579453 -0.00469736 -0.00709367 0.0579453 -0.00424147 0.00361164 0.0579453 -0.0072728 -0.0072728 0.0579453 -0.00361164 -0.00711301 0.0579453 -0.00297662 -0.00665713 0.0579453 -0.00250657 0.00469736 0.0579453 -0.00662362 0.00424147 0.0579453 -0.00709367 -0.0059886 0.0579453 -0.00485715 -0.00535877 0.0579453 -0.00467802 -0.00490288 0.0579453 -0.00420797 -0.00602729 0.0579453 -0.00232744 -0.00539227 0.0579453 -0.00248723 -0.00492223 0.0579453 -0.00294311 -0.0047431 0.0579453 -0.00357295 0.00297662 0.0579453 -0.00711301 0.00250657 0.0579453 -0.00665713 0.00232744 0.0579453 -0.00602729 0.00248723 0.0579453 -0.00539227 0.00294311 0.0579453 -0.00492222 0.00357295 0.0579453 -0.0047431 0.00420797 0.0579453 -0.00490288 0.00467801 0.0579453 -0.00535877 0.00485715 0.0579453 -0.0059886 -0.00361164 0.0579453 0.0072728 -0.00424147 0.0579453 0.00709367 -0.00469736 0.0579453 0.00662362 -0.00248723 0.0579453 0.00539227 -0.00294311 0.0579453 0.00492223 -0.00357295 0.0579453 0.0047431 -0.00420797 0.0579453 0.00490288 -0.00467801 0.0579453 0.00535877 -0.00485715 0.0579453 0.0059886 -0.00297662 0.0579453 0.00711301 -0.00250657 0.0579453 0.00665713 -0.00232744 0.0579453 0.00602729 0.00250657 0.0604453 -0.00665713 0.00297662 0.0604453 -0.00711301 0.00241009 0.0604453 -0.00970523 0.00248723 0.0604453 -0.00539227 0.00232744 0.0604453 -0.00602729 0.00309333 0.0604453 -0.00950954 0.00361164 0.0604453 -0.0072728 0.00575889 0.0604453 -0.00817528 0.00294311 0.0604453 -0.00492222 0.00357295 0.0604453 -0.0047431 0.00662362 0.0604453 0.00469736 0.0059886 0.0604453 0.00485714 0.00673812 0.0604453 0.00738903 0.00535877 0.0604453 0.00467801 0.00490288 0.0604453 0.00420797 0.0047431 0.0604453 0.00357295 0.00492223 0.0604453 0.00294311 0.00539227 0.0604453 0.00248723 0.00602729 0.0604453 0.00232744 0.00709367 0.0604453 0.00424147 0.00858278 0.0604453 0.00513185 0.0072728 0.0604453 0.00361164 0.00971411 0.0604453 0.00237403 0.00711301 0.0604453 0.00297662 0.00420797 0.0604453 -0.00490288 0.00424147 0.0604453 -0.00709367 0.00469736 0.0604453 -0.00662362 0.00791274 0.0604453 -0.00611461 0.00485715 0.0604453 -0.0059886 0.00936352 0.0604453 -0.00351064 0.00467801 0.0604453 -0.00535877 0.00665713 0.0604453 0.00250657 0.0099823 0.0604453 -0.000594723 -0.00772206 0.0604453 -0.00635373 -0.00925178 0.0604453 -0.00379533 -0.0072728 0.0604453 -0.00361164 -0.00711301 0.0604453 -0.00297662 -0.00995944 0.0604453 -0.000899705 -0.00665713 0.0604453 -0.00250657 -0.00709367 0.0604453 -0.00424147 -0.00662362 0.0604453 -0.00469736 -0.00550619 0.0604453 -0.00834756 -0.0059886 0.0604453 -0.00485715 -0.00280108 0.0604453 -0.00959968 -0.00535877 0.0604453 -0.00467802 0.000152919 0.0604453 -0.00999883 -0.00490288 0.0604453 -0.00420797 -0.0047431 0.0604453 -0.00357295 -0.00602729 0.0604453 -0.00232744 -0.00539227 0.0604453 -0.00248723 -0.00492223 0.0604453 -0.00294311 -0.0087357 0.0604453 0.00486698 -0.00978217 0.0604453 0.00207586 -0.00447611 0.0604453 0.00894229 -0.00424147 0.0604453 0.00709367 -0.00691303 0.0604453 0.00722565 -0.00469736 0.0604453 0.00662362 -0.00485715 0.0604453 0.0059886 -0.00467801 0.0604453 0.00535877 -0.00420797 0.0604453 0.00490288 -0.00357295 0.0604453 0.0047431 -0.00294311 0.0604453 0.00492223 -0.00248723 0.0604453 0.00539227 -0.00232744 0.0604453 0.00602729 0.00668884 0.0604453 0.00743367 0.00420056 0.0604453 0.00907498 0.00133904 0.0604453 0.00990994 -0.00250657 0.0604453 0.00665713 -0.00164146 0.0604453 0.00986436 -0.00297662 0.0604453 0.00711301 -0.00361164 0.0604453 0.0072728 0.00424122 0.0604453 -0.00709324 0.00424122 0.0624453 -0.00709324 0.00370606 0.0604453 -0.00726732 0.00370606 0.0624453 -0.00726732 0.00314837 0.0604453 -0.00719196 0.00314837 0.0624453 -0.00719196 0.00267861 0.0604453 -0.0068821 0.00267861 0.0624453 -0.0068821 0.00238981 0.0604453 -0.0063991 0.00238981 0.0624453 -0.0063991 0.00233918 0.0604453 -0.00583863 0.00233918 0.0624453 -0.00583863 0.00253674 0.0604453 -0.00531169 0.00253674 0.0624453 -0.00531169 0.00294337 0.0604453 -0.00492265 0.00294337 0.0624453 -0.00492265 0.00347853 0.0604453 -0.00474858 0.00347853 0.0624453 -0.00474858 0.00403621 0.0604453 -0.00482393 0.00403621 0.0624453 -0.00482393 0.00450598 0.0604453 -0.0051338 0.00450598 0.0624453 -0.0051338 0.00479477 0.0604453 -0.0056168 0.00479477 0.0624453 -0.0056168 0.0048454 0.0604453 -0.00617727 0.0048454 0.0624453 -0.00617727 0.00464784 0.0604453 -0.00670421 0.00464784 0.0624453 -0.00670421 -0.00709324 0.0604453 -0.00424122 -0.00709324 0.0624453 -0.00424122 -0.00726732 0.0604453 -0.00370606 -0.00726732 0.0624453 -0.00370606 -0.00719196 0.0604453 -0.00314837 -0.00719196 0.0624453 -0.00314837 -0.0068821 0.0604453 -0.00267861 -0.0068821 0.0624453 -0.00267861 -0.0063991 0.0604453 -0.00238981 -0.0063991 0.0624453 -0.00238981 -0.00583863 0.0604453 -0.00233918 -0.00583863 0.0624453 -0.00233918 -0.00531169 0.0604453 -0.00253674 -0.00531169 0.0624453 -0.00253674 -0.00492265 0.0604453 -0.00294337 -0.00492265 0.0624453 -0.00294337 -0.00474858 0.0604453 -0.00347853 -0.00474858 0.0624453 -0.00347853 -0.00482393 0.0604453 -0.00403621 -0.00482393 0.0624453 -0.00403621 -0.00513379 0.0604453 -0.00450598 -0.00513379 0.0624453 -0.00450598 -0.0056168 0.0604453 -0.00479477 -0.0056168 0.0624453 -0.00479477 -0.00617727 0.0604453 -0.00484541 -0.00617727 0.0624453 -0.00484541 -0.00670421 0.0604453 -0.00464784 -0.00670421 0.0624453 -0.00464784 -0.00424122 0.0604453 0.00709324 -0.00424122 0.0624453 0.00709324 -0.00370606 0.0604453 0.00726732 -0.00370606 0.0624453 0.00726732 -0.00314837 0.0604453 0.00719196 -0.00314837 0.0624453 0.00719196 -0.00267861 0.0604453 0.0068821 -0.00267861 0.0624453 0.0068821 -0.00238981 0.0604453 0.0063991 -0.00238981 0.0624453 0.0063991 -0.00233918 0.0604453 0.00583863 -0.00233918 0.0624453 0.00583863 -0.00253674 0.0604453 0.00531169 -0.00253674 0.0624453 0.00531169 -0.00294337 0.0604453 0.00492265 -0.00294337 0.0624453 0.00492265 -0.00347853 0.0604453 0.00474858 -0.00347853 0.0624453 0.00474858 -0.00403621 0.0604453 0.00482393 -0.00403621 0.0624453 0.00482393 -0.00450598 0.0604453 0.0051338 -0.00450598 0.0624453 0.0051338 -0.00479477 0.0604453 0.0056168 -0.00479477 0.0624453 0.0056168 -0.0048454 0.0604453 0.00617727 -0.0048454 0.0624453 0.00617727 -0.00464784 0.0604453 0.00670421 -0.00464784 0.0624453 0.00670421 -0.00331136 0.0624453 0.00943583 0.00482393 0.0624453 0.00403621 0.00474858 0.0624453 0.00347852 0.000477005 0.0624453 0.0018957 0.00710525 0.0624453 0.00703672 0.00617727 0.0624453 0.00484541 0.0056168 0.0624453 0.00479477 0.00513379 0.0624453 0.00450598 0.00940329 0.0624453 -0.00340265 0.0087357 0.0624453 -0.00486698 0.0063991 0.0624453 0.00238981 0.00531169 0.0624453 0.00253674 0.00583863 0.0624453 0.00233918 0.00627186 0.0624453 -0.0077887 0.00674491 0.0624453 -0.00738283 0.00670421 0.0624453 0.00464784 0.00814201 0.0624453 0.00580583 0.00709324 0.0624453 0.00424121 0.00858278 0.0624453 0.00513185 0.00726732 0.0624453 0.00370606 0.00896789 0.0624453 0.00442458 0.00719196 0.0624453 0.00314837 0.00784186 0.0624453 -0.00620526 0.00956151 0.0624453 0.00292873 0.0099075 0.0624453 0.00135703 0.0068821 0.0624453 0.00267861 0.00999688 0.0624453 -0.000249817 0.00982735 0.0624453 -0.0018502 -0.00175486 0.0624453 0.00984482 0.00302126 0.0624453 0.00953268 0.00451129 0.0624453 0.00892459 -0.000152919 0.0624453 0.00999883 0.00145299 0.0624453 0.00989388 0.00588447 0.0624453 0.00808536 -0.00112993 0.0624453 0.000986533 -0.00118714 0.0624453 0.0009169 -0.00478209 0.0624453 0.00878246 -0.00612897 0.0624453 0.00790163 -0.00731711 0.0624453 0.00681615 -0.00831574 0.0624453 0.00555413 -0.009099 0.0624453 0.00414827 -0.000630988 0.0624453 0.00136083 -2.29384e-05 0.0624453 0.00149982 -0.0096466 0.0624453 0.00263497 -0.00994436 0.0624453 0.00105342 -0.00976617 0.0624453 -0.00214985 -0.00998456 0.0624453 -0.000555407 -0.00921023 0.0624453 -0.00389507 0.000900133 0.0624453 -0.0011999 0.00131036 0.0624453 -0.000730047 -0.00929484 0.0624453 -0.00368862 0.00147337 0.0624453 0.00028138 0.00149401 0.0624453 -0.000133962 -0.00143351 0.0624453 0.000441656 -0.00148921 0.0624453 -0.000179586 -0.00128742 0.0624453 -0.000769777 -0.00377853 0.0624453 -0.00925866 -0.00521479 0.0624453 -0.00853264 0.00141933 0.0624453 0.000485287 0.00492265 0.0624453 0.00294337 0.00128742 0.0624453 0.000769777 0.00109924 0.0624453 0.00102062 0.000589078 0.0624453 0.00137949 -0.000863017 0.0624453 -0.00122687 -0.000289395 0.0624453 -0.00147182 0.000334268 0.0624453 -0.00146228 0.000956994 0.0624453 -0.0099541 -0.000652149 0.0624453 -0.00997871 -0.0022444 0.0624453 -0.00974488 0.00547328 0.0624453 -0.00836918 0.00405989 0.0624453 -0.00913878 0.00254135 0.0624453 -0.00967169 -0.00858278 0.0624453 -0.00513185 -0.00764843 0.0624453 -0.00644217 -0.00651599 0.0624453 -0.00758564 0.00588447 0.0604453 0.00808536 0.0056168 0.0604453 0.00479477 0.00617727 0.0604453 0.00484541 0.00513379 0.0604453 0.00450598 0.00135957 0.0604453 0.00428971 0.00482393 0.0604453 0.00403621 0.00234666 0.0604453 0.00383969 0.00474858 0.0604453 0.00347852 0.00319736 0.0604453 0.00316652 0.00492265 0.0604453 0.00294337 0.00531169 0.0604453 0.00253674 0.00430268 0.0604453 0.00131793 0.00583863 0.0604453 0.00233918 0.00449305 0.0604453 0.000249933 0.00442231 0.0604453 -0.000832588 0.00739406 0.0604453 -0.0067326 0.00784186 0.0604453 -0.00620526 0.00425619 0.0604453 -0.00146112 0.0087357 0.0604453 -0.00486698 0.00719196 0.0604453 0.00314837 0.00956151 0.0604453 0.00292873 0.00726732 0.0604453 0.00370606 0.00896789 0.0604453 0.00442458 0.00709324 0.0604453 0.00424121 0.00670421 0.0604453 0.00464784 0.00814201 0.0604453 0.00580583 0.00710525 0.0604453 0.00703672 0.0063991 0.0604453 0.00238981 0.00982735 0.0604453 -0.0018502 0.0068821 0.0604453 0.00267861 0.00999688 0.0604453 -0.000249817 0.0099075 0.0604453 0.00135703 0.00940329 0.0604453 -0.00340265 0.00182695 0.0604453 -0.00411245 0.000789689 0.0604453 -0.00443017 -0.00444363 0.0604453 0.000710019 -0.000652149 0.0604453 -0.00997871 -0.00969886 0.0604453 -0.00243561 -0.00929484 0.0604453 -0.00368862 -0.00858278 0.0604453 -0.00513185 -0.00764843 0.0604453 -0.00644217 0.00674491 0.0604453 -0.00738283 0.00547328 0.0604453 -0.00836918 0.00405989 0.0604453 -0.00913878 0.00254135 0.0604453 -0.00967169 0.000956994 0.0604453 -0.0099541 0.00275804 0.0604453 -0.00355573 0.00352884 0.0604453 -0.00279237 0.00409455 0.0604453 -0.00186672 -0.00651599 0.0604453 -0.00758564 -0.00521479 0.0604453 -0.00853264 -0.00377853 0.0604453 -0.00925866 -0.0022444 0.0604453 -0.00974488 -0.000293467 0.0604453 -0.00449042 -0.00135957 0.0604453 -0.00428971 -0.00234666 0.0604453 -0.00383969 -0.00319736 0.0604453 -0.00316652 -0.00430268 0.0604453 -0.00131793 -0.00449305 0.0604453 -0.000249933 -0.00976617 0.0604453 -0.00214985 -0.00998456 0.0604453 -0.000555407 -0.00994436 0.0604453 0.00105342 -0.00175486 0.0604453 0.00984482 -0.00331136 0.0604453 0.00943583 -0.00478209 0.0604453 0.00878246 -0.00612897 0.0604453 0.00790163 -0.000789689 0.0604453 0.00443017 -0.00731711 0.0604453 0.00681615 -0.00831574 0.0604453 0.00555413 -0.009099 0.0604453 0.00414827 -0.0096466 0.0604453 0.00263497 -0.00442231 0.0604453 0.000832588 -0.00409455 0.0604453 0.00186672 -0.00352884 0.0604453 0.00279237 -0.00275804 0.0604453 0.00355573 -0.00182695 0.0604453 0.00411245 0.000293467 0.0604453 0.00449042 0.00451129 0.0604453 0.00892459 0.00302126 0.0604453 0.00953268 0.00145299 0.0604453 0.00989388 -0.000152919 0.0604453 0.00999883 -0.000296719 0.0579453 0.00298529 7.31294e-05 0.0579453 0.00274903 0.000455014 0.0579453 0.00296529 -0.00267955 0.0579453 0.00134907 -0.0022819 0.0579453 0.00153475 -0.00225987 0.0579453 0.00197307 0.000754487 0.0579453 0.00264448 0.00117816 0.0579453 0.00275898 -0.000823077 0.0579453 -0.00288488 -0.00135957 0.0579453 -0.00428971 -0.000293467 0.0579453 -0.00449042 -0.00257483 0.0579453 -0.00153955 -0.00251853 0.0579453 -0.00110431 -0.00287681 0.0579453 -0.000850851 -0.00102981 0.0579453 0.00281771 -0.000612823 0.0579453 0.00268085 0.00282751 0.0579453 -0.0010026 0.00245626 0.0579453 -0.00123665 0.00248934 0.0579453 -0.00167427 -0.00271404 0.0579453 -0.000443283 -0.00299803 0.0579453 -0.000108686 -0.00182853 0.0579453 0.00205401 -0.00169819 0.0579453 0.00247308 0.00182727 0.0579453 0.0023793 0.00193515 0.0579453 0.00195389 0.00236157 0.0579453 0.00185013 0.00298801 0.0579453 -0.000267924 0.00268663 0.0579453 -0.00058695 0.000668535 0.0579453 -0.00292456 0.000271993 0.0579453 -0.00273652 -7.9777e-05 0.0579453 -0.00299894 -0.00107998 0.0579453 -0.00252906 -0.00151466 0.0579453 -0.00258956 -0.00234666 0.0579453 -0.00383969 -0.001675 0.0579453 -0.00218103 -0.00211107 0.0579453 -0.00213152 -0.00319736 0.0579453 -0.00316652 -0.00216478 0.0579453 -0.00169595 -0.00273901 0.0579453 0.000245598 -0.00293087 0.0579453 0.000640309 -0.00126027 0.0579453 0.00244422 0.00138844 0.0579453 0.00237376 0.00137484 0.0579453 -0.00266642 0.00094399 0.0579453 -0.0025829 -0.00259188 0.0579453 0.000919045 0.00296077 0.0579453 0.000483581 0.0027482 0.0579453 9.96287e-05 0.00207155 0.0579453 -0.00180864 0.00199476 0.0579453 -0.00224074 0.00155668 0.0579453 -0.00226699 0.00430268 0.0579453 0.00131793 0.00449305 0.0579453 0.000249933 0.00442231 0.0579453 -0.000832588 0.00409455 0.0579453 -0.00186672 0.00352884 0.0579453 -0.00279237 0.00275804 0.0579453 -0.00355573 0.00182695 0.0579453 -0.00411245 0.000789689 0.0579453 -0.00443017 -0.000417096 0.0579453 -0.00271818 0.00263708 0.0579453 0.000779947 0.00274749 0.0579453 0.0012047 0.00236027 0.0579453 0.00141126 0.00319736 0.0579453 0.00316652 0.00234666 0.0579453 0.00383969 0.00135957 0.0579453 0.00428971 0.000293467 0.0579453 0.00449042 -0.000789689 0.0579453 0.00443017 -0.00182695 0.0579453 0.00411245 -0.00275804 0.0579453 0.00355573 -0.00352884 0.0579453 0.00279237 -0.00409455 0.0579453 0.00186672 -0.00442231 0.0579453 0.000832588 -0.00449305 0.0579453 -0.000249933 -0.00430268 0.0579453 -0.00131793 -0.00107998 0.0614453 -0.00252906 -0.000823077 0.0614453 -0.00288488 -0.000417096 0.0614453 -0.00271818 -0.00251853 0.0614453 -0.00110431 -0.00128742 0.0614453 -0.000769777 -0.00148921 0.0614453 -0.000179586 0.000271993 0.0614453 -0.00273652 0.000334268 0.0614453 -0.00146228 -0.000289395 0.0614453 -0.00147182 -0.00273901 0.0614453 0.000245598 -0.00299803 0.0614453 -0.000108686 -0.00271404 0.0614453 -0.000443283 -0.00216478 0.0614453 -0.00169595 -0.00211107 0.0614453 -0.00213152 -0.001675 0.0614453 -0.00218103 0.00263708 0.0614453 0.000779947 0.00274749 0.0614453 0.0012047 0.00236027 0.0614453 0.00141126 -0.00257483 0.0614453 -0.00153955 -0.000863017 0.0614453 -0.00122687 0.00094399 0.0614453 -0.0025829 0.00137484 0.0614453 -0.00266642 0.00155668 0.0614453 -0.00226699 0.00245626 0.0614453 -0.00123665 0.00282751 0.0614453 -0.0010026 0.00268663 0.0614453 -0.00058695 0.00298801 0.0614453 -0.000267924 0.0027482 0.0614453 9.96287e-05 0.00149401 0.0614453 -0.000133962 0.00141933 0.0614453 0.000485287 0.00109924 0.0614453 0.00102062 0.00128742 0.0614453 0.000769777 0.00296077 0.0614453 0.000483581 0.00193515 0.0614453 0.00195389 0.00182727 0.0614453 0.0023793 0.00138844 0.0614453 0.00237376 0.000455014 0.0614453 0.00296529 -0.00112993 0.0614453 0.000986533 0.000754487 0.0614453 0.00264448 -0.000630988 0.0614453 0.00136083 -0.00151466 0.0614453 -0.00258956 -7.9777e-05 0.0614453 -0.00299894 0.000668535 0.0614453 -0.00292456 0.000900133 0.0614453 -0.0011999 0.00199476 0.0614453 -0.00224074 0.00207155 0.0614453 -0.00180864 0.00131036 0.0614453 -0.000730047 7.31294e-05 0.0614453 0.00274903 -0.000296719 0.0614453 0.00298529 -0.000612823 0.0614453 0.00268085 0.00248934 0.0614453 -0.00167427 0.00117816 0.0614453 0.00275898 -0.00143351 0.0614453 0.000441656 -0.0022819 0.0614453 0.00153475 -0.00182853 0.0614453 0.00205401 -0.00225987 0.0614453 0.00197307 -0.00259188 0.0614453 0.000919045 -0.00293087 0.0614453 0.000640309 -2.29384e-05 0.0614453 0.00149982 0.000589078 0.0614453 0.00137949 0.00236157 0.0614453 0.00185013 -0.00169819 0.0614453 0.00247308 -0.00126027 0.0614453 0.00244422 -0.00102981 0.0614453 0.00281771 -0.00287681 0.0614453 -0.000850851 -0.00267955 0.0614453 0.00134907</float_array>
                    <technique_common>
                        <accessor count="1484" source="#shape0-lib-positions-array" stride="3">
                            <param name="X" type="float"/>
                            <param name="Y" type="float"/>
                            <param name="Z" type="float"/>
                        </accessor>
                    </technique_common>
                </source>
                <vertices id="shape0-lib-vertices">
                    <input semantic="POSITION" source="#shape0-lib-positions"/>
                </vertices>
                <triangles count="3178">
                    <input offset="0" semantic="VERTEX" source="#shape0-lib-vertices"/>
                    <p>0 1 2 2 1 3 2 4 0 0 4 5 0 5 6 6 5 7 6 7 8 8 7 9 8 9 10 10 9 11 12 13 11 11 13 14 11 14 10 15 16 17 17 16 18 17 18 19 19 18 20 19 20 21 21 20 22 21 22 12 12 22 23 12 23 13 1 24 3 3 24 25 3 25 26 26 25 27 26 27 28 28 27 29 28 29 30 30 29 31 30 31 15 15 31 32 15 32 16 33 34 35 35 34 36 35 36 37 38 39 40 41 42 35 35 42 43 35 43 44 44 43 45 44 45 46 47 48 49 49 48 50 37 51 35 35 51 52 35 52 48 40 53 38 38 53 54 38 54 55 55 54 56 55 56 57 47 58 48 48 58 55 48 55 35 35 55 57 35 57 41 59 60 61 61 60 62 61 62 63 63 62 64 63 64 50 50 64 65 50 65 49 49 65 66 49 66 67 67 66 68 69 70 68 71 72 33 33 72 59 38 73 39 39 73 44 39 44 74 74 44 46 73 75 44 44 75 76 44 76 69 69 76 77 69 77 70 66 78 68 68 78 79 68 79 69 69 79 80 69 80 33 33 80 81 33 81 71 61 82 59 59 82 83 59 83 33 33 83 84 33 84 34 85 86 87 87 86 88 85 87 89 89 87 90 89 90 91 91 90 92 92 90 93 92 93 94 94 93 95 94 95 96 96 95 97 96 97 98 98 97 99 98 99 100 101 102 103 103 102 104 103 104 105 106 107 101 101 107 108 101 108 102 86 109 88 88 109 110 88 110 106 106 110 111 106 111 107 105 104 112 112 104 113 112 113 114 114 115 112 112 115 116 112 116 99 99 116 117 99 117 100 118 119 120 118 120 121 122 94 123 123 94 96 123 96 124 121 120 125 125 120 126 125 126 127 119 44 120 120 44 69 120 69 96 96 69 128 96 128 124 129 130 131 131 130 132 133 134 135 136 130 137 137 130 129 137 129 120 120 129 138 135 134 139 139 134 140 139 140 141 141 140 142 141 142 143 143 142 144 143 144 145 146 147 148 138 149 120 120 149 150 120 150 126 126 150 151 126 151 152 152 151 153 152 153 154 154 153 155 154 155 156 156 155 157 156 157 158 158 157 159 158 159 160 160 159 133 160 133 161 161 133 135 145 144 147 147 144 162 147 162 148 132 163 131 131 163 164 131 164 165 165 164 146 165 146 166 166 146 148 104 167 113 113 167 168 113 168 169 169 170 113 113 170 33 113 33 146 146 33 35 146 35 171 171 172 146 146 172 173 146 173 147 147 173 174 147 174 175 176 177 178 117 179 130 130 179 180 130 180 181 132 182 116 116 182 183 116 183 184 185 186 117 117 186 187 188 189 190 190 189 191 190 191 187 187 191 192 187 192 117 117 192 193 117 193 179 116 194 117 117 194 195 117 195 185 196 197 176 176 197 198 176 198 177 130 199 132 132 199 200 200 201 132 132 201 202 132 202 197 196 203 197 197 203 204 197 204 132 132 204 205 132 205 182 206 207 208 188 190 209 209 190 210 209 210 211 212 213 214 214 213 215 208 207 216 184 217 116 116 217 218 116 218 194 194 218 216 194 216 219 219 216 207 211 213 209 209 213 212 209 212 220 220 212 199 220 199 221 221 199 130 221 130 222 222 130 181 215 213 223 223 213 206 223 206 178 178 206 208 178 208 176 167 104 102 167 102 224 224 102 108 224 108 225 225 108 107 225 107 226 226 107 111 226 111 227 227 111 110 227 110 228 228 110 109 228 109 229 229 109 86 229 86 230 230 86 85 230 85 231 231 85 89 231 89 232 232 89 91 232 91 233 233 91 92 233 92 234 234 92 94 234 94 122 123 235 236 123 236 122 236 237 122 122 237 238 122 238 234 234 238 239 240 232 239 239 232 233 239 233 234 241 230 240 240 230 231 240 231 232 235 123 242 242 123 168 242 168 243 243 168 167 243 167 244 244 167 224 244 224 245 246 228 241 241 228 229 241 229 230 224 225 245 245 225 226 245 226 246 246 226 227 246 227 228 127 126 152 127 152 247 247 152 154 247 154 248 248 154 156 248 156 249 249 156 158 249 158 250 250 158 160 250 160 251 251 160 161 251 161 252 252 161 253 253 161 135 253 135 254 254 135 139 254 139 255 255 139 141 255 141 256 256 141 143 256 143 257 257 143 145 257 145 258 258 145 147 258 147 175 259 253 260 260 253 254 260 254 261 262 263 174 174 263 264 174 264 175 175 264 265 175 265 258 258 265 266 258 266 257 257 266 267 257 267 256 256 267 261 256 261 255 255 261 254 25 253 27 27 253 259 27 259 29 29 259 268 29 268 31 31 268 269 31 269 32 32 269 270 32 270 262 250 271 249 249 271 272 125 127 273 273 127 274 274 127 247 274 247 272 272 247 248 272 248 249 273 275 125 125 275 276 125 276 277 278 279 280 277 281 13 13 281 282 278 271 279 279 271 250 279 250 283 283 250 251 283 251 284 284 251 252 284 252 285 285 252 253 0 6 286 280 286 278 278 286 6 278 6 287 287 6 8 287 8 288 288 8 10 288 10 282 282 10 14 282 14 13 286 289 0 0 289 290 0 290 1 1 290 291 1 291 24 24 291 292 24 292 25 25 292 293 25 293 253 253 293 294 253 294 285 262 174 32 32 174 173 32 173 16 22 20 295 296 297 121 295 20 298 298 20 18 298 18 299 299 18 16 299 16 300 300 16 173 300 173 301 277 13 125 125 13 23 125 23 22 121 297 173 173 297 302 173 302 301 295 303 22 22 303 304 22 304 125 125 304 305 125 305 121 121 305 306 121 306 296 307 308 309 310 311 312 312 311 313 314 315 316 317 5 318 318 5 4 318 4 319 15 320 30 30 320 321 30 321 28 28 321 322 28 322 26 26 322 323 26 323 324 316 325 314 314 325 326 314 326 327 327 326 328 327 328 309 309 328 329 309 329 307 4 2 319 319 2 3 319 3 330 330 3 331 311 332 313 313 332 333 313 333 334 334 333 335 334 335 336 336 335 337 336 337 315 315 337 338 315 338 316 316 338 331 316 331 324 324 331 3 324 3 26 339 340 12 340 341 342 342 341 343 342 343 344 317 310 5 5 310 312 5 312 7 343 345 344 344 345 346 344 346 347 347 346 348 347 348 349 349 348 350 349 350 351 351 350 352 351 352 353 353 352 354 353 354 312 312 354 355 312 355 7 339 12 356 356 12 11 356 11 355 355 11 9 355 9 7 340 342 12 12 342 357 12 357 358 359 360 361 359 361 358 361 362 358 358 362 363 358 363 12 12 363 364 12 364 21 21 364 365 21 365 19 19 365 366 19 366 17 17 366 367 367 368 17 17 368 309 17 309 15 15 309 308 15 308 320 360 359 369 369 359 370 369 370 371 371 370 372 371 372 373 373 372 374 373 374 368 368 374 375 368 375 309 159 312 133 133 312 313 133 313 134 134 313 334 134 334 140 140 334 336 140 336 142 142 336 315 142 315 144 144 315 314 144 314 162 314 327 162 162 327 309 162 309 148 148 309 375 148 375 166 166 375 374 166 374 165 165 374 372 165 372 131 131 372 370 131 370 129 129 370 359 129 359 138 138 359 358 138 358 149 149 358 357 149 357 150 150 357 342 150 342 151 151 342 344 151 344 153 153 344 347 153 347 155 155 347 349 155 349 157 157 349 351 157 351 159 159 351 353 159 353 312 265 328 266 266 328 326 266 326 267 267 326 325 267 325 261 261 325 316 261 316 260 260 316 324 260 324 259 259 324 323 259 323 268 268 323 322 268 322 269 269 322 321 269 321 270 270 321 320 270 320 262 262 320 308 262 308 263 263 308 307 263 307 264 264 307 329 264 329 265 265 329 328 300 373 299 299 373 368 299 368 298 298 368 367 298 367 295 295 367 366 295 366 303 303 366 365 303 365 304 304 365 364 304 364 305 305 364 363 305 363 306 306 363 362 306 362 296 296 362 361 296 361 297 297 361 360 297 360 302 302 360 369 302 369 301 301 369 371 301 371 300 300 371 373 288 356 287 287 356 355 287 355 278 278 355 354 278 354 271 271 354 352 271 352 272 272 352 350 272 350 274 274 350 348 274 348 273 273 348 346 273 346 275 275 346 345 275 345 276 276 345 343 276 343 277 277 343 341 277 341 281 281 341 340 281 340 282 282 340 339 282 339 288 288 339 356 293 338 294 294 338 337 294 337 285 285 337 335 285 335 284 284 335 333 284 333 283 283 333 332 283 332 279 279 332 311 279 311 280 280 311 310 280 310 286 286 310 317 286 317 289 289 317 318 289 318 290 290 318 319 290 319 291 291 319 330 291 330 292 292 330 331 292 331 293 293 331 338 238 93 239 239 93 90 239 90 240 240 90 87 240 87 241 241 87 88 241 88 246 246 88 106 246 106 245 245 106 101 245 101 244 244 101 103 244 103 243 243 103 105 243 105 242 242 105 112 242 112 235 235 112 99 235 99 236 236 99 97 236 97 237 237 97 95 237 95 238 238 95 93 208 78 176 176 78 66 176 66 196 196 66 65 196 65 203 203 65 64 203 64 204 204 64 62 204 62 205 205 62 60 205 60 182 182 60 59 182 59 183 183 59 72 183 72 184 184 72 71 184 71 217 217 71 81 217 81 218 218 81 80 218 80 216 216 80 79 216 79 208 208 79 78 214 50 212 212 50 48 212 48 199 199 48 52 199 52 200 200 52 51 200 51 201 201 51 37 201 37 202 202 37 36 202 36 197 197 36 34 197 34 198 198 34 84 198 84 177 177 84 83 177 83 178 178 83 82 178 82 223 223 82 61 223 61 215 215 61 63 215 63 214 214 63 50 179 39 180 180 39 74 180 74 181 181 74 46 181 46 222 222 46 45 222 45 221 221 45 43 221 43 220 220 43 42 220 42 209 209 42 41 209 41 188 188 41 57 188 57 189 189 57 56 189 56 191 191 56 54 191 54 192 192 54 53 192 53 193 193 53 40 193 40 179 179 40 39 187 76 190 190 76 75 190 75 210 210 75 73 210 73 211 211 73 38 211 38 213 213 38 55 213 55 206 206 55 58 206 58 207 207 58 47 207 47 219 219 47 49 219 49 194 194 49 67 194 67 195 195 67 68 195 68 185 185 68 70 185 70 186 186 70 77 186 77 187 187 77 76 120 96 98 120 98 137 137 98 100 137 100 136 136 100 117 136 117 130 113 146 164 113 164 114 114 164 163 114 163 115 115 163 132 115 132 116 168 123 169 169 123 124 169 124 170 170 124 128 170 128 33 33 128 69 121 173 118 118 173 172 118 172 119 119 172 171 119 171 44 44 171 35 376 377 378 378 377 379 378 379 380 380 379 381 380 381 382 382 381 383 382 383 384 384 383 385 384 385 386 386 385 387 386 387 388 388 387 389 388 389 390 390 389 391 390 391 392 392 391 393 392 393 394 394 393 395 394 395 396 396 395 397 396 397 398 398 397 399 398 399 400 400 399 401 400 401 402 402 401 403 402 403 376 376 403 377 404 405 406 406 405 407 406 407 408 408 407 409 408 409 410 410 409 411 410 411 412 412 411 413 412 413 414 414 413 415 414 415 416 416 415 417 416 417 418 418 417 419 418 419 420 420 419 421 420 421 422 422 421 423 422 423 424 424 423 425 424 425 426 426 425 427 426 427 428 428 427 429 428 429 430 430 429 431 430 431 404 404 431 405 432 433 434 434 433 435 434 435 436 436 435 437 436 437 438 438 437 439 438 439 440 440 439 441 440 441 442 442 441 443 442 443 444 444 443 445 444 445 446 446 445 447 446 447 448 448 447 449 448 449 450 450 449 451 450 451 452 452 451 453 452 453 454 454 453 455 454 455 456 456 455 457 456 457 458 458 457 459 458 459 432 432 459 433 460 461 462 462 461 463 464 465 466 466 465 467 467 465 468 467 468 469 469 468 470 470 468 471 470 471 472 473 474 475 475 474 476 466 463 464 464 463 461 464 461 477 477 461 478 479 480 481 481 480 482 481 482 483 473 475 484 484 475 485 484 485 486 486 485 487 486 487 479 479 487 488 479 488 480 482 489 483 483 489 490 483 490 471 471 490 491 471 491 472 476 478 475 475 478 461 475 461 492 492 461 493 494 495 461 461 495 496 461 496 493 497 498 453 453 498 455 499 451 500 500 451 449 500 449 501 441 502 461 461 502 503 461 503 494 441 439 502 502 439 437 502 437 504 504 437 435 504 435 505 498 506 455 455 506 507 455 507 457 457 507 508 457 508 459 459 508 505 459 505 433 433 505 435 499 509 451 451 509 510 451 510 453 453 510 511 453 511 497 501 449 512 512 449 447 512 447 460 460 447 445 460 445 461 461 445 443 461 443 441 409 407 499 513 514 385 421 395 393 387 429 427 499 407 515 515 407 405 515 405 516 516 405 431 516 431 517 517 431 429 517 429 514 514 429 387 514 387 385 393 391 421 421 391 389 421 389 423 423 389 387 423 387 425 425 387 427 518 519 381 381 519 520 381 520 383 383 520 521 383 521 385 385 521 522 385 522 513 417 415 500 500 415 413 500 413 499 499 413 411 499 411 409 381 379 518 518 379 377 518 377 523 523 377 403 523 403 470 470 403 401 500 524 417 417 524 525 417 525 419 419 525 526 419 526 421 527 528 395 401 399 470 470 399 397 470 397 469 469 397 395 469 395 529 529 395 528 526 530 421 421 530 531 421 531 395 395 531 532 395 532 527 533 534 535 535 534 536 535 536 537 537 536 538 537 538 539 539 538 540 539 540 541 541 540 542 541 542 543 543 542 544 543 544 545 533 546 547 547 546 548 547 548 549 549 548 550 549 550 551 551 550 552 551 552 553 553 552 554 553 554 555 555 554 556 555 556 557 557 556 558 559 560 561 561 560 562 545 561 543 543 561 562 543 562 563 563 562 564 563 564 558 558 564 565 558 565 557 412 414 566 559 400 567 567 400 402 567 402 568 568 402 569 412 566 410 420 570 418 418 570 571 418 571 416 416 571 572 416 572 414 414 572 573 414 573 566 408 574 406 406 574 575 406 575 404 404 575 576 404 576 430 430 576 577 430 577 428 388 390 578 578 390 579 579 390 392 579 392 580 580 392 394 580 394 561 561 394 396 561 396 559 559 396 398 559 398 400 386 424 426 402 376 569 569 376 378 569 378 581 581 378 380 581 380 582 582 380 382 583 384 584 584 384 386 584 386 577 577 386 426 577 426 428 583 585 384 384 585 586 384 586 382 382 586 587 382 587 582 578 588 388 388 588 589 388 589 386 386 589 590 386 590 591 424 386 422 422 386 591 422 591 420 420 591 592 420 592 570 593 594 452 595 534 442 456 458 596 596 458 432 596 432 597 597 432 434 597 434 598 598 434 436 598 436 599 599 436 438 599 438 534 534 438 440 534 440 442 408 410 574 574 410 566 574 566 600 600 566 594 595 442 601 601 442 444 601 444 602 602 444 446 602 446 603 603 446 448 603 448 604 604 448 605 605 448 450 605 450 606 452 594 450 450 594 566 450 566 606 596 607 456 456 607 608 456 608 454 454 608 609 454 609 452 452 609 610 452 610 593 533 547 534 534 547 611 534 611 612 612 613 534 534 613 614 534 614 599 576 575 499 499 575 509 509 575 574 509 574 510 499 515 576 576 515 516 576 516 577 577 516 517 577 517 584 584 517 514 584 514 583 583 514 513 583 513 585 585 513 522 585 522 586 586 522 521 586 521 587 587 521 520 587 520 582 582 520 519 582 519 581 581 519 518 581 518 569 569 518 523 569 523 568 568 523 470 568 470 567 567 470 472 567 472 559 559 472 491 559 491 560 560 491 490 560 490 562 562 490 489 562 489 564 564 489 482 564 482 565 565 482 480 565 480 557 557 480 488 557 488 555 555 488 487 555 487 553 553 487 485 553 485 551 551 485 475 551 475 549 549 475 492 549 492 547 547 492 493 547 493 611 611 493 496 611 496 612 612 496 495 612 495 613 613 495 494 613 494 614 614 494 503 614 503 599 599 503 502 599 502 598 598 502 504 598 504 597 597 504 505 597 505 596 596 505 508 596 508 607 607 508 507 607 507 608 608 507 506 608 506 609 609 506 498 609 498 610 610 498 497 610 497 593 593 497 511 593 511 594 594 511 510 594 510 600 600 510 574 615 616 617 618 619 620 621 622 623 624 625 615 626 627 628 620 629 624 630 631 632 633 634 635 621 636 622 622 636 637 622 637 638 639 640 641 642 643 630 644 645 633 637 646 638 638 646 647 638 647 648 648 647 649 648 649 626 650 651 639 652 653 618 654 655 642 632 656 657 657 658 644 659 654 660 660 654 642 660 642 661 661 642 630 661 630 662 662 630 632 662 632 663 663 632 657 663 657 664 664 657 644 664 644 665 665 644 633 665 633 666 666 633 635 666 635 623 623 635 667 623 667 621 668 669 650 641 670 671 628 672 668 671 673 652 674 654 675 675 654 659 675 659 676 676 659 677 676 677 617 617 677 678 617 678 615 615 678 679 615 679 624 624 679 680 624 680 620 620 680 681 620 681 618 618 681 682 618 682 652 652 682 683 652 683 671 671 683 684 671 684 641 641 684 685 641 685 639 639 685 686 639 686 650 650 686 687 650 687 668 668 687 688 668 688 628 628 688 689 628 689 626 626 689 690 626 690 648 661 544 660 660 544 542 660 542 659 659 542 540 659 540 677 677 540 538 677 538 678 678 538 536 678 536 679 679 536 534 679 534 680 680 534 595 680 595 681 681 595 601 681 601 682 682 601 602 682 602 683 683 602 603 683 603 684 684 603 604 684 604 685 685 604 605 685 605 686 686 605 606 686 606 687 687 606 566 687 566 688 566 573 688 688 573 572 688 572 689 689 572 571 689 571 690 690 571 570 690 570 648 648 570 592 648 592 638 638 592 591 638 591 622 622 591 590 622 590 623 623 590 589 623 589 666 666 589 588 666 588 665 665 588 578 665 578 664 664 578 579 664 579 663 663 579 580 663 580 662 662 580 561 662 561 661 661 561 545 661 545 544 691 692 693 694 695 696 697 698 699 700 701 702 703 704 700 705 706 707 708 709 710 696 711 712 713 714 697 699 715 716 717 718 719 710 720 721 712 722 723 697 699 713 713 699 716 713 716 724 725 726 727 728 729 730 731 708 732 732 708 710 732 710 733 733 710 721 692 691 734 735 736 703 721 737 733 733 737 738 733 738 739 740 697 723 723 697 714 723 714 712 712 714 741 712 741 696 696 741 739 696 739 694 694 739 738 694 738 742 743 691 727 727 691 693 727 693 725 725 693 724 725 724 744 744 724 716 702 745 700 700 745 746 700 746 703 703 746 734 703 734 735 735 734 691 735 691 747 748 705 730 730 705 707 730 707 728 728 707 745 728 745 749 749 745 702 705 750 706 706 750 751 706 751 752 753 754 717 755 708 719 719 708 731 719 731 717 717 731 752 717 752 753 753 752 751 753 751 756 752 500 706 706 500 501 706 501 707 707 501 512 707 512 745 745 512 460 745 460 746 746 460 462 746 462 734 734 462 463 734 463 692 692 463 466 692 466 693 466 467 693 693 467 469 693 469 724 724 469 529 724 529 713 713 529 528 713 528 714 714 528 527 714 527 741 741 527 532 741 532 739 739 532 531 739 531 733 733 531 530 733 530 732 732 530 526 732 526 731 731 526 525 731 525 752 752 525 524 752 524 500 552 484 554 554 484 486 554 486 556 556 486 479 556 479 558 558 479 481 558 481 563 563 481 483 563 483 543 543 483 471 543 471 541 541 471 468 541 468 539 539 468 465 539 465 537 537 465 464 537 464 535 535 464 477 535 477 533 533 477 478 533 478 546 546 478 476 546 476 548 548 476 474 548 474 550 550 474 473 550 473 552 552 473 484 691 743 676 676 743 675 743 727 675 675 727 674 735 747 616 616 747 617 747 691 617 617 691 676 703 736 625 625 736 615 736 735 615 615 735 616 700 704 629 629 704 624 704 703 624 624 703 625 702 701 619 619 701 620 701 700 620 620 700 629 728 749 653 653 749 618 749 702 618 618 702 619 730 729 673 673 729 652 729 728 652 652 728 653 705 748 670 670 748 671 748 730 671 671 730 673 751 750 640 640 750 641 750 705 641 641 705 670 753 756 651 651 756 639 756 751 639 639 751 640 717 754 669 669 754 650 754 753 650 650 753 651 719 718 672 672 718 668 718 717 668 668 717 669 708 755 627 627 755 628 755 719 628 628 719 672 710 709 649 649 709 626 709 708 626 626 708 627 721 720 646 646 720 647 720 710 647 647 710 649 738 737 636 636 737 637 737 721 637 637 721 646 694 742 667 667 742 621 742 738 621 621 738 636 696 695 634 634 695 635 695 694 635 635 694 667 712 711 645 645 711 633 711 696 633 633 696 634 723 722 658 658 722 644 722 712 644 644 712 645 697 740 656 656 740 657 740 723 657 657 723 658 699 698 631 631 698 632 698 697 632 632 697 656 716 715 643 643 715 630 715 699 630 630 699 631 725 744 655 655 744 642 744 716 642 642 716 643 727 726 674 674 726 654 726 725 654 654 725 655 757 758 759 759 758 760 760 758 761 760 761 762 761 763 762 762 763 764 762 764 765 765 764 766 765 766 767 767 766 768 767 768 769 769 768 770 769 770 771 770 772 771 771 772 773 771 773 774 774 773 775 774 775 776 776 775 777 776 777 778 778 777 779 778 779 780 780 779 781 780 781 782 782 781 783 759 784 757 757 784 785 757 785 786 786 785 787 786 787 788 788 787 789 788 789 790 790 789 791 790 791 783 783 791 792 783 792 782 793 794 795 796 797 798 799 800 801 802 793 803 803 793 797 803 797 804 796 805 797 797 805 806 797 806 804 807 808 799 799 808 809 799 809 798 798 809 810 798 810 796 811 812 813 807 799 814 814 799 801 814 801 815 801 816 815 815 816 817 815 817 802 802 817 818 802 818 793 793 818 819 793 819 794 820 821 795 795 821 822 795 822 793 793 822 823 793 823 824 824 823 825 824 825 826 827 801 828 811 813 829 826 830 824 824 830 831 824 831 813 813 831 832 813 832 829 828 801 812 820 833 821 821 833 834 821 834 828 828 834 835 828 835 827 812 836 813 813 836 837 813 837 838 800 839 801 801 839 840 801 840 812 812 840 841 812 841 836 838 842 813 813 842 843 813 843 797 797 843 844 797 844 798 845 846 847 847 846 848 849 850 847 847 850 851 847 851 845 852 853 849 849 853 854 849 854 850 855 856 852 852 856 857 852 857 853 846 858 848 848 858 859 848 859 860 860 859 861 860 861 862 863 864 865 866 867 868 868 867 869 868 869 870 870 869 871 870 871 872 872 871 873 872 873 874 874 873 875 874 875 855 855 875 876 855 876 856 862 861 877 877 861 878 877 878 879 879 863 877 877 863 865 877 865 868 868 865 880 868 880 866 881 882 871 883 884 885 883 885 886 887 873 888 888 873 871 888 871 889 889 871 882 886 885 890 890 885 891 890 891 892 884 893 885 885 893 797 885 797 871 871 797 793 871 793 881 894 895 896 896 895 897 895 898 897 897 898 899 897 899 900 896 901 894 894 901 902 894 902 903 903 902 904 903 904 905 905 904 906 905 906 907 907 906 908 907 908 909 910 911 885 885 911 912 885 912 891 891 912 913 891 913 914 914 913 915 914 915 916 916 915 917 916 917 918 918 917 919 918 919 920 920 919 921 920 921 922 922 921 909 922 909 923 923 909 908 924 925 926 926 927 924 924 927 928 924 928 929 910 885 927 927 885 930 927 930 928 899 931 900 900 931 932 900 932 933 933 932 934 933 934 935 935 934 926 935 926 936 936 926 925 937 938 900 878 861 939 938 940 900 900 940 941 900 941 897 897 941 942 897 942 943 939 944 878 878 944 945 878 945 946 946 947 878 878 947 824 878 824 900 900 824 813 900 813 937 182 205 223 223 205 204 223 204 215 215 204 203 215 203 214 180 179 865 865 179 193 202 201 925 925 201 200 925 200 865 865 200 199 865 199 212 924 183 182 210 192 211 211 192 191 211 191 213 194 176 195 195 176 208 223 178 182 182 178 177 182 177 924 924 177 198 924 198 925 925 198 197 925 197 202 220 212 209 209 212 214 209 214 188 188 214 203 188 203 196 220 221 212 212 221 222 212 222 865 865 222 181 865 181 180 880 187 186 191 189 213 213 189 188 213 188 206 206 188 196 206 196 207 207 196 176 207 176 219 219 176 194 187 880 190 190 880 865 190 865 210 210 865 193 210 193 192 208 216 195 195 216 880 195 880 185 185 880 186 216 218 880 880 218 217 880 217 924 924 217 184 924 184 183 939 861 859 939 859 948 948 859 858 948 858 949 949 858 846 949 846 950 950 846 845 950 845 951 951 845 851 951 851 952 952 851 850 952 850 953 953 850 854 953 854 954 954 854 853 954 853 955 955 853 857 955 857 956 956 857 856 956 856 957 957 856 876 957 876 958 958 876 875 958 875 959 959 875 873 959 873 887 954 955 960 960 955 961 962 949 950 887 963 959 959 963 964 955 956 961 961 956 957 961 957 964 964 957 958 964 958 959 962 950 965 950 951 965 965 951 952 965 952 960 960 952 953 960 953 954 949 962 948 948 962 966 948 966 939 939 966 967 939 967 944 944 967 968 944 968 888 968 969 888 888 969 970 888 970 887 887 970 971 887 971 963 892 891 914 892 914 972 972 914 916 972 916 973 973 916 918 973 918 974 974 918 920 974 920 975 975 920 922 975 922 976 976 922 923 976 923 977 977 923 908 977 908 978 978 908 979 979 908 906 979 906 980 980 906 904 980 904 981 981 904 902 981 902 982 982 902 901 982 901 983 983 901 896 983 896 984 984 896 897 984 897 943 985 986 979 979 986 987 785 979 787 787 979 987 787 987 789 789 987 988 789 988 791 791 988 989 791 989 792 792 989 990 792 990 991 979 980 985 985 980 981 985 981 992 981 982 992 992 982 983 992 983 993 993 983 984 993 984 994 994 984 943 994 943 995 995 943 942 995 942 996 996 942 991 997 998 892 892 998 890 975 976 999 998 1000 890 890 1000 1001 890 1001 1002 979 1003 978 978 1003 1004 999 976 1004 1004 976 977 1004 977 978 892 972 997 997 972 973 997 973 1005 1005 973 974 1005 974 1006 1006 974 975 1006 975 1007 771 1008 769 769 1008 1009 769 1009 767 767 1009 1010 767 1010 765 765 1010 1011 765 1011 762 762 1011 1007 999 1012 975 975 1012 1013 975 1013 1007 1007 1013 1014 1007 1014 762 762 1014 1015 762 1015 760 760 1015 1016 760 1016 759 759 1016 1017 759 1017 784 784 1017 1018 784 1018 785 785 1018 1019 785 1019 979 979 1019 1020 979 1020 1003 991 942 792 792 942 941 792 941 782 774 890 771 771 890 1002 771 1002 1008 1021 941 1022 1022 941 886 1022 886 1023 1024 1025 776 776 1025 774 1025 1026 774 774 1026 1027 774 1027 890 890 1027 1028 890 1028 886 886 1028 1029 886 1029 1023 1021 1030 941 941 1030 1031 941 1031 782 782 1031 1032 782 1032 780 780 1032 1024 780 1024 778 778 1024 776 1033 1034 1035 1036 1037 763 763 1037 764 1035 1034 1038 1038 1034 1039 1038 1039 1040 1036 763 1041 1041 763 761 1041 761 1042 1043 1044 1045 1045 1044 1046 1045 1046 783 783 1046 1047 783 1047 790 790 1047 1048 790 1048 788 788 1048 1049 788 1049 786 786 1049 1050 786 1050 1051 1043 1045 1052 1052 1045 1053 1052 1053 1054 1054 1053 1055 1054 1055 1056 761 758 1042 1042 758 757 1042 757 1057 1039 1058 1040 1040 1058 1059 1040 1059 1060 1060 1059 1061 1060 1061 1062 1062 1061 1063 1062 1063 1064 1064 1063 1057 1064 1057 1051 1051 1057 757 1051 757 786 1056 1055 1064 1064 1055 1065 1064 1065 1062 1066 1067 1068 1068 1067 1069 1069 1067 1070 1069 1070 1071 1068 1072 1066 1066 1072 1073 1066 1073 1074 1074 1073 1075 1074 1075 1076 1076 1075 1077 1076 1077 1078 1078 1077 1079 1078 1079 1035 1035 1079 1080 1081 772 1082 1082 772 770 1082 770 1083 1083 770 768 1083 768 1080 1080 768 766 1080 766 1035 1035 766 764 1035 764 1033 1033 764 1037 1084 773 1085 1085 773 772 1085 772 1070 1070 772 1081 1070 1081 1071 1086 1087 1088 1088 1087 1089 1088 1089 1084 1089 1090 1084 1084 1090 1091 1084 1091 773 773 1091 1092 773 1092 775 775 1092 1093 775 1093 777 777 1093 1094 777 1094 779 779 1094 1095 779 1095 781 781 1095 1096 783 781 1045 1045 781 1096 1045 1096 1097 1097 1096 1098 1098 1096 1099 1099 1096 1100 1099 1100 1101 1101 1100 1102 1101 1102 1086 1086 1102 1103 1086 1103 1087 921 1035 909 909 1035 1038 909 1038 907 907 1038 1040 907 1040 905 905 1040 1060 905 1060 903 903 1060 1062 903 1062 894 894 1062 1065 894 1065 895 895 1065 1055 895 1055 898 1055 1053 898 898 1053 1045 898 1045 899 899 1045 1097 899 1097 931 931 1097 1098 931 1098 932 932 1098 1099 932 1099 934 934 1099 1101 934 1101 926 926 1101 1086 926 1086 927 927 1086 1088 927 1088 910 910 1088 1084 910 1084 911 911 1084 1085 911 1085 912 912 1085 1070 912 1070 913 913 1070 1067 913 1067 915 915 1067 1066 915 1066 917 917 1066 1074 917 1074 919 919 1074 1076 919 1076 921 921 1076 1078 921 1078 1035 994 1052 993 993 1052 1054 993 1054 992 992 1054 1056 992 1056 985 985 1056 1064 985 1064 986 986 1064 1051 986 1051 987 987 1051 1050 987 1050 988 988 1050 1049 988 1049 989 989 1049 1048 989 1048 990 990 1048 1047 990 1047 991 991 1047 1046 991 1046 996 996 1046 1044 996 1044 995 995 1044 1043 995 1043 994 994 1043 1052 1031 1100 1032 1032 1100 1096 1032 1096 1024 1024 1096 1095 1024 1095 1025 1025 1095 1094 1025 1094 1026 1026 1094 1093 1026 1093 1027 1027 1093 1092 1027 1092 1028 1028 1092 1091 1028 1091 1029 1029 1091 1090 1029 1090 1023 1023 1090 1089 1023 1089 1022 1022 1089 1087 1022 1087 1021 1021 1087 1103 1021 1103 1030 1030 1103 1102 1030 1102 1031 1031 1102 1100 1010 1083 1011 1011 1083 1080 1011 1080 1007 1007 1080 1079 1007 1079 1006 1006 1079 1077 1006 1077 1005 1005 1077 1075 1005 1075 997 997 1075 1073 997 1073 998 998 1073 1072 998 1072 1000 1000 1072 1068 1000 1068 1001 1001 1068 1069 1001 1069 1002 1002 1069 1071 1002 1071 1008 1008 1071 1081 1008 1081 1009 1009 1081 1082 1009 1082 1010 1010 1082 1083 1019 1063 1020 1020 1063 1061 1020 1061 1003 1003 1061 1059 1003 1059 1004 1004 1059 1058 1004 1058 999 999 1058 1039 999 1039 1012 1012 1039 1034 1012 1034 1013 1013 1034 1033 1013 1033 1014 1014 1033 1037 1014 1037 1015 1015 1037 1036 1015 1036 1016 1016 1036 1041 1016 1041 1017 1017 1041 1042 1017 1042 1018 1018 1042 1057 1018 1057 1019 1019 1057 1063 963 874 964 964 874 855 964 855 961 961 855 852 961 852 960 960 852 849 960 849 965 965 849 847 965 847 962 962 847 848 962 848 966 966 848 860 966 860 967 967 860 862 967 862 968 968 862 877 968 877 969 969 877 868 969 868 970 970 868 870 970 870 971 971 870 872 971 872 963 963 872 874 191 821 189 189 821 828 189 828 188 188 828 812 188 812 209 209 812 811 209 811 220 220 811 829 220 829 221 221 829 832 221 832 222 222 832 831 222 831 181 181 831 830 181 830 180 180 830 826 180 826 179 179 826 825 179 825 193 193 825 823 193 823 192 192 823 822 192 822 191 191 822 821 178 799 177 177 799 798 177 798 198 198 798 844 198 844 197 197 844 843 197 843 202 202 843 842 202 842 201 201 842 838 201 838 200 200 838 837 200 837 199 199 837 836 199 836 212 212 836 841 212 841 214 214 841 840 214 840 215 215 840 839 215 839 223 223 839 800 223 800 178 178 800 799 217 803 184 184 803 804 184 804 183 183 804 806 183 806 182 182 806 805 182 805 205 205 805 796 205 796 204 204 796 810 204 810 203 203 810 809 203 809 196 196 809 808 196 808 176 176 808 807 176 807 208 208 807 814 208 814 216 216 814 815 216 815 218 218 815 802 218 802 217 217 802 803 195 818 194 194 818 817 194 817 219 219 817 816 219 816 207 207 816 801 207 801 206 206 801 827 206 827 213 213 827 835 213 835 211 211 835 834 211 834 210 210 834 833 210 833 190 190 833 820 190 820 187 187 820 795 187 795 186 186 795 794 186 794 185 185 794 819 185 819 195 195 819 818 885 871 869 885 869 930 930 869 867 930 867 928 928 867 866 928 866 929 929 866 880 929 880 924 878 900 933 878 933 879 879 933 935 879 935 863 863 935 936 863 936 864 864 936 925 864 925 865 944 888 945 945 888 889 945 889 946 946 889 882 946 882 947 947 882 881 947 881 824 824 881 793 886 941 883 883 941 940 883 940 884 884 940 938 884 938 893 893 938 937 893 937 797 797 937 813 1104 1105 1106 1106 1105 1107 1106 1107 1108 1108 1107 1109 1108 1109 1110 1110 1109 1111 1110 1111 1112 1112 1111 1113 1112 1113 1114 1114 1113 1115 1114 1115 1116 1116 1115 1117 1116 1117 1118 1118 1117 1119 1118 1119 1120 1120 1119 1121 1120 1121 1122 1122 1121 1123 1122 1123 1124 1124 1123 1125 1124 1125 1126 1126 1125 1127 1126 1127 1128 1128 1127 1129 1128 1129 1130 1130 1129 1131 1130 1131 1104 1104 1131 1105 1132 1133 1134 1134 1133 1135 1134 1135 1136 1136 1135 1137 1136 1137 1138 1138 1137 1139 1138 1139 1140 1140 1139 1141 1140 1141 1142 1142 1141 1143 1142 1143 1144 1144 1143 1145 1144 1145 1146 1146 1145 1147 1146 1147 1148 1148 1147 1149 1148 1149 1150 1150 1149 1151 1150 1151 1152 1152 1151 1153 1152 1153 1154 1154 1153 1155 1154 1155 1156 1156 1155 1157 1156 1157 1158 1158 1157 1159 1158 1159 1132 1132 1159 1133 1160 1161 1162 1162 1161 1163 1162 1163 1164 1164 1163 1165 1164 1165 1166 1166 1165 1167 1166 1167 1168 1168 1167 1169 1168 1169 1170 1170 1169 1171 1170 1171 1172 1172 1171 1173 1172 1173 1174 1174 1173 1175 1174 1175 1176 1176 1175 1177 1176 1177 1178 1178 1177 1179 1178 1179 1180 1180 1179 1181 1180 1181 1182 1182 1181 1183 1182 1183 1184 1184 1183 1185 1184 1185 1186 1186 1185 1187 1186 1187 1160 1160 1187 1161 1165 1163 1188 1189 1190 1191 1192 1193 1194 1189 1191 1195 1196 1197 1198 1199 1200 1201 1201 1200 1202 1193 1192 1203 1203 1192 1204 1203 1204 1205 1205 1204 1206 1205 1206 1207 1207 1206 1208 1207 1208 1209 1198 1197 1200 1200 1197 1210 1200 1210 1202 1208 1211 1209 1209 1211 1212 1209 1212 1213 1213 1212 1214 1213 1214 1198 1198 1214 1215 1198 1215 1196 1191 1188 1216 1191 1217 1218 1216 1219 1191 1191 1219 1220 1191 1220 1217 1194 1195 1192 1192 1195 1191 1192 1191 1221 1221 1191 1218 1222 1223 1177 1177 1223 1179 1188 1163 1224 1224 1163 1161 1224 1161 1225 1225 1161 1187 1225 1187 1226 1226 1187 1185 1226 1185 1227 1227 1185 1183 1227 1183 1228 1222 1177 1229 1229 1177 1175 1229 1175 1230 1230 1175 1173 1230 1173 1191 1173 1171 1191 1191 1171 1169 1191 1169 1188 1188 1169 1167 1188 1167 1165 1228 1183 1231 1231 1183 1181 1231 1181 1232 1179 1233 1181 1181 1233 1234 1181 1234 1232 1145 1143 1223 1115 1157 1155 1141 1139 1235 1236 1237 1121 1143 1141 1223 1223 1141 1235 1223 1235 1179 1179 1235 1238 1179 1238 1233 1131 1129 1201 1201 1129 1127 1125 1123 1239 1239 1123 1121 1239 1121 1240 1240 1121 1237 1223 1241 1145 1145 1241 1242 1145 1242 1147 1147 1242 1243 1147 1243 1149 1244 1245 1113 1127 1125 1201 1201 1125 1239 1201 1239 1199 1199 1239 1246 1199 1246 1247 1247 1246 1248 1247 1248 1190 1190 1248 1249 1190 1249 1191 1191 1249 1250 1191 1250 1230 1121 1119 1149 1149 1119 1117 1149 1117 1151 1151 1117 1115 1151 1115 1153 1153 1115 1155 1243 1251 1149 1149 1251 1252 1149 1252 1121 1121 1252 1253 1121 1253 1236 1109 1254 1111 1111 1254 1255 1111 1255 1113 1113 1255 1256 1113 1256 1244 1131 1201 1105 1105 1201 1257 1105 1257 1107 1107 1257 1258 1107 1258 1109 1109 1258 1259 1109 1259 1254 1139 1137 1235 1235 1137 1135 1235 1135 1260 1260 1135 1133 1260 1133 1261 1261 1133 1159 1261 1159 1262 1262 1159 1157 1262 1157 1245 1245 1157 1115 1245 1115 1113 1263 1264 1265 1264 1263 1266 1266 1263 1267 1266 1267 1268 1268 1267 1269 1268 1269 1270 1270 1269 1271 1270 1271 1272 1272 1271 788 1272 788 1273 1273 788 1274 1273 1274 1275 1275 1274 1276 1275 1276 1277 1278 1279 1280 1280 1279 1281 1282 1283 1284 1284 1283 1285 1284 1285 1286 1286 1285 1053 1286 1053 1287 1287 1053 1288 1287 1288 1265 1265 1288 1289 1265 1289 1263 1290 1291 1292 1292 1291 1293 1292 1293 1282 1282 1293 1294 1282 1294 1283 1277 1280 1275 1275 1280 1281 1275 1281 1290 1290 1281 1295 1290 1295 1291 1296 1297 1116 1140 1142 1298 1116 1297 1114 1150 1152 1299 1136 1300 1134 1134 1300 1301 1134 1301 1132 1132 1301 1302 1132 1302 1158 1158 1302 1303 1158 1303 1156 1140 1298 1138 1278 1128 1304 1304 1128 1130 1304 1130 1305 1305 1130 1104 1305 1104 1306 1306 1104 1106 1306 1106 1307 1307 1106 1108 1307 1108 1308 1308 1108 1110 1308 1110 1299 1296 1116 1309 1309 1116 1118 1309 1118 1310 1310 1118 1120 1310 1120 1311 1311 1120 1122 1311 1122 1280 1280 1122 1124 1280 1124 1278 1278 1124 1126 1278 1126 1128 1303 1312 1156 1156 1312 1313 1156 1313 1154 1154 1313 1314 1154 1314 1152 1152 1314 1315 1152 1315 1299 1299 1110 1150 1150 1110 1112 1150 1112 1114 1297 1316 1114 1114 1316 1317 1114 1317 1150 1150 1317 1318 1150 1318 1148 1148 1318 1319 1148 1319 1146 1146 1319 768 1146 768 1144 1144 768 1320 1144 1320 1142 1142 1320 1321 1142 1321 1298 1136 1138 1300 1300 1138 1298 1300 1298 1322 1322 1298 1323 1298 1178 1323 1323 1178 1180 1323 1180 1324 1164 1325 1162 1162 1325 1326 1162 1326 1160 1160 1326 1327 1160 1327 1186 1186 1327 1328 1186 1328 1184 1170 1172 1329 1328 1330 1184 1184 1330 1331 1184 1331 1182 1182 1331 1332 1182 1332 1180 1180 1332 1333 1180 1333 1324 1298 1334 1178 1178 1334 1335 1178 1335 1176 1176 1335 1336 1176 1336 1174 1174 1336 1337 1174 1337 1172 1172 1337 1338 1172 1338 1329 1329 1339 1170 1170 1339 1267 1170 1267 1168 1168 1267 1166 1263 1340 1267 1267 1340 1341 1267 1341 1342 1164 1166 1325 1325 1166 1267 1325 1267 1343 1343 1267 1342 1302 1301 1235 1235 1301 1238 1238 1301 1300 1238 1300 1233 1235 1260 1302 1302 1260 1261 1302 1261 1303 1303 1261 1262 1303 1262 1312 1312 1262 1245 1312 1245 1313 1313 1245 1244 1313 1244 1314 1314 1244 1256 1314 1256 1315 1315 1256 1255 1315 1255 1299 1299 1255 1254 1299 1254 1308 1308 1254 1259 1308 1259 1307 1307 1259 1258 1307 1258 1306 1306 1258 1257 1306 1257 1305 1305 1257 1201 1305 1201 1304 1304 1201 1202 1304 1202 1278 1278 1202 1210 1278 1210 1279 1279 1210 1197 1279 1197 1281 1281 1197 1196 1281 1196 1295 1295 1196 1215 1295 1215 1291 1291 1215 1214 1291 1214 1293 1293 1214 1212 1293 1212 1294 1294 1212 1211 1294 1211 1283 1283 1211 1208 1283 1208 1285 1285 1208 1206 1285 1206 1053 1053 1206 1204 1053 1204 1288 1288 1204 1192 1288 1192 1289 1289 1192 1221 1289 1221 1263 1263 1221 1218 1263 1218 1340 1340 1218 1217 1340 1217 1341 1341 1217 1220 1341 1220 1342 1342 1220 1219 1342 1219 1343 1343 1219 1216 1343 1216 1325 1325 1216 1188 1325 1188 1326 1326 1188 1224 1326 1224 1327 1327 1224 1225 1327 1225 1328 1328 1225 1226 1328 1226 1330 1330 1226 1227 1330 1227 1331 1331 1227 1228 1331 1228 1332 1332 1228 1231 1332 1231 1333 1333 1231 1232 1333 1232 1324 1324 1232 1234 1324 1234 1323 1323 1234 1233 1323 1233 1322 1322 1233 1300 1344 1345 1346 1347 1348 1349 1346 1350 1351 1352 1353 1354 1355 1356 1357 1358 1359 1344 1360 1361 1362 1357 1363 1364 1349 1365 1366 1367 1368 1369 1370 1371 1360 1372 1373 1374 1352 1375 1353 1353 1375 1376 1353 1376 1377 1376 1378 1377 1377 1378 1379 1377 1379 1380 1380 1379 1381 1380 1381 1355 1364 1382 1383 1366 1384 1358 1351 1385 1367 1386 1387 1372 1383 1388 1347 1389 1390 1370 1362 1391 1392 1392 1393 1386 1394 1389 1395 1395 1389 1370 1395 1370 1396 1396 1370 1360 1396 1360 1397 1397 1360 1362 1397 1362 1398 1398 1362 1392 1398 1392 1399 1399 1392 1386 1399 1386 1400 1400 1386 1372 1400 1372 1401 1401 1372 1374 1401 1374 1354 1354 1374 1402 1354 1402 1352 1403 1389 1404 1404 1389 1394 1404 1394 1405 1405 1394 789 1405 789 1369 1369 789 1406 1369 1406 1367 1367 1406 1407 1367 1407 1351 1351 1407 1408 1351 1408 1346 1346 1408 1409 1346 1409 1344 1344 1409 1410 1344 1410 1358 1358 1410 1411 1358 1411 1366 1366 1411 1412 1366 1412 1349 1349 1412 1413 1349 1413 1347 1347 1413 1414 1347 1414 1383 1383 1414 1415 1383 1415 1364 1364 1415 1416 1364 1416 1357 1357 1416 1417 1357 1417 1355 1355 1417 767 1355 767 1380 1396 1276 1395 1395 1276 1274 1395 1274 1394 1394 1274 788 1394 788 789 789 788 1271 789 1271 1406 1406 1271 1269 1406 1269 1407 1407 1269 1267 1407 1267 1408 1408 1267 1339 1408 1339 1409 1409 1339 1329 1409 1329 1410 1410 1329 1338 1410 1338 1411 1411 1338 1337 1411 1337 1412 1412 1337 1336 1412 1336 1413 1413 1336 1335 1413 1335 1414 1414 1335 1334 1414 1334 1415 1415 1334 1298 1415 1298 1416 1298 1321 1416 1416 1321 1320 1416 1320 1417 1417 1320 768 1417 768 767 767 768 1319 767 1319 1380 1380 1319 1318 1380 1318 1377 1377 1318 1317 1377 1317 1353 1353 1317 1316 1353 1316 1354 1354 1316 1297 1354 1297 1401 1401 1297 1296 1401 1296 1400 1400 1296 1309 1400 1309 1399 1399 1309 1310 1399 1310 1398 1398 1310 1311 1398 1311 1397 1397 1311 1280 1397 1280 1396 1396 1280 1277 1396 1277 1276 1418 1419 1420 1421 1422 1423 1424 1425 1426 1427 1428 1429 1430 1431 1432 1433 1434 1435 1421 1436 1422 1422 1436 1430 1422 1430 1437 1437 1430 1432 1438 1439 1440 1441 1442 1443 1444 1445 1446 1446 1445 1447 1448 1449 1435 1435 1449 1447 1435 1447 1433 1433 1447 1445 1433 1445 1450 1451 1452 1453 1454 1455 1456 1456 1455 1457 1432 1458 1437 1437 1458 1418 1437 1418 1426 1426 1418 1420 1426 1420 1424 1424 1420 1459 1424 1460 1425 1425 1460 1438 1425 1438 1461 1440 1462 1463 1444 1446 1443 1443 1446 1464 1443 1464 1441 1454 1465 1455 1455 1465 1466 1455 1466 1467 1438 1440 1461 1461 1440 1463 1461 1463 1464 1464 1463 1468 1464 1468 1441 1453 1469 1456 1470 1455 1471 1471 1455 1472 1471 1472 1473 1474 1475 1427 1457 1476 1456 1456 1476 1477 1456 1477 1453 1453 1477 1448 1453 1448 1451 1451 1448 1435 1451 1435 1478 1479 1472 1480 1480 1472 1455 1480 1455 1481 1481 1455 1467 1482 1421 1429 1429 1421 1423 1429 1423 1427 1427 1423 1470 1427 1470 1474 1474 1470 1471 1474 1471 1483 1470 1223 1455 1455 1223 1222 1455 1222 1457 1457 1222 1229 1457 1229 1476 1476 1229 1230 1476 1230 1477 1477 1230 1250 1477 1250 1448 1448 1250 1249 1448 1249 1449 1449 1249 1248 1449 1248 1447 1248 1246 1447 1447 1246 1239 1447 1239 1446 1446 1239 1240 1446 1240 1464 1464 1240 1237 1464 1237 1461 1461 1237 1236 1461 1236 1425 1425 1236 1253 1425 1253 1426 1426 1253 1252 1426 1252 1437 1437 1252 1251 1437 1251 1422 1422 1251 1243 1422 1243 1423 1423 1243 1242 1423 1242 1470 1470 1242 1241 1470 1241 1223 1286 1205 1284 1284 1205 1207 1284 1207 1282 1282 1207 1209 1282 1209 1292 1292 1209 1213 1292 1213 1290 1290 1213 1198 1290 1198 1275 1275 1198 1200 1275 1200 1273 1273 1200 1199 1273 1199 1272 1272 1199 1247 1272 1247 1270 1270 1247 1190 1270 1190 1268 1268 1190 1189 1268 1189 1266 1266 1189 1195 1266 1195 1264 1264 1195 1194 1264 1194 1265 1265 1194 1193 1265 1193 1287 1287 1193 1203 1287 1203 1286 1286 1203 1205 1435 1434 1405 1405 1434 1404 1434 1433 1404 1404 1433 1403 1451 1478 1368 1368 1478 1369 1478 1435 1369 1369 1435 1405 1453 1452 1385 1385 1452 1367 1452 1451 1367 1367 1451 1368 1456 1469 1350 1350 1469 1351 1469 1453 1351 1351 1453 1385 1465 1454 1345 1345 1454 1346 1454 1456 1346 1346 1456 1350 1467 1466 1359 1359 1466 1344 1466 1465 1344 1344 1465 1345 1480 1481 1384 1384 1481 1358 1481 1467 1358 1358 1467 1359 1472 1479 1365 1365 1479 1366 1479 1480 1366 1366 1480 1384 1471 1473 1348 1348 1473 1349 1473 1472 1349 1349 1472 1365 1474 1483 1388 1388 1483 1347 1483 1471 1347 1347 1471 1348 1427 1475 1382 1382 1475 1383 1475 1474 1383 1383 1474 1388 1429 1428 1363 1363 1428 1364 1428 1427 1364 1364 1427 1382 1421 1482 1356 1356 1482 1357 1482 1429 1357 1357 1429 1363 1430 1436 1381 1381 1436 1355 1436 1421 1355 1355 1421 1356 1432 1431 1378 1378 1431 1379 1431 1430 1379 1379 1430 1381 1418 1458 1375 1375 1458 1376 1458 1432 1376 1376 1432 1378 1420 1419 1402 1402 1419 1352 1419 1418 1352 1352 1418 1375 1424 1459 1373 1373 1459 1374 1459 1420 1374 1374 1420 1402 1438 1460 1387 1387 1460 1372 1460 1424 1372 1372 1424 1373 1440 1439 1393 1393 1439 1386 1439 1438 1386 1386 1438 1387 1463 1462 1391 1391 1462 1392 1462 1440 1392 1392 1440 1393 1441 1468 1361 1361 1468 1362 1468 1463 1362 1362 1463 1391 1443 1442 1371 1371 1442 1360 1442 1441 1360 1360 1441 1361 1445 1444 1390 1390 1444 1370 1444 1443 1370 1370 1443 1371 1433 1450 1403 1403 1450 1389 1450 1445 1389 1389 1445 1390</p>
                </triangles>
            </mesh>
        </geometry>
    </library_geometries>
    <library_visual_scenes>
        <visual_scene id="VisualSceneNode" name="VisualScene">
            <node id="node" name="node">
                <instance_geometry url="#shape0-lib"/>
            </node>
        </visual_scene>
    </library_visual_scenes>
    <scene>
        <instance_visual_scene url="#VisualSceneNode"/>
    </scene>
</COLLADA>
