<?xml version="1.0" encoding="UTF-8"?>
<COLLADA xmlns="http://www.collada.org/2005/11/COLLADASchema" version="1.4.1">
    <asset>
        <contributor>
            <author>VCGLab</author>
            <authoring_tool>VCGLib | MeshLab</authoring_tool>
        </contributor>
        <created>Mon Jul 6 22:41:16 2026 GMT</created>
        <modified>Mon Jul 6 22:41:16 2026 GMT</modified>
        <up_axis>Y_UP</up_axis>
    </asset>
    <library_geometries>
        <geometry id="shape0-lib" name="shape0">
            <mesh>
                <source id="shape0-lib-positions" name="position">
                    <float_array id="shape0-lib-positions-array" count="3075">0.0228081 0.00440237 0.0147237 0.02423 0.00384216 0.0172171 0.0219305 0.00364258 0.0161914 0.0240762 0.00364258 0.0174743 0.0212874 0.00225295 0.0172669 0.0234331 0.00225295 0.0185499 0.0210907 0.00139382 0.0175959 0.0232364 0.00139382 0.0188788 0.02099 0.000473771 0.0177643 0.0231357 0.000473771 0.0190473 0.0210897 -0.00138733 0.0175977 0.0232354 -0.00138733 0.0188806 0.0215692 -0.00300856 0.0167957 0.0237149 -0.00300856 0.0180787 0.0223456 -0.00410957 0.0154971 0.0244913 -0.00410957 0.0167801 0.0232848 -0.0045 0.0139265 0.0254305 -0.0045 0.0152094 0.0262984 -0.00417144 0.0137578 0.0242242 -0.00411234 0.0123553 0.0263699 -0.00411234 0.0136383 0.0250015 -0.00301362 0.0110553 0.0271472 -0.00301362 0.0123383 0.0254823 -0.00139382 0.0102512 0.027628 -0.00139382 0.0115342 0.0255834 0.000466991 0.0100821 0.0277291 0.000466991 0.0113651 0.0252873 0.00224705 0.0105773 0.027433 0.00224705 0.0118602 0.0246453 0.00363857 0.011651 0.026791 0.00363857 0.012934 0.0237684 0.00440096 0.0131177 0.0259141 0.00440096 0.0144006 0.0249538 0.00440237 0.0160067 0.0329713 0.00253485 0.0084436 0.0331367 -0.000293132 0.00816697 0.0356842 -0.00109785 0.00390642 0.0273786 -0.0521872 0.0177971 0.023475 -0.0497093 0.0243256 0.0265953 -0.0554654 0.0191071 0.0228885 -0.0518549 0.0253066 0.0254322 -0.058283 0.0210523 0.0219607 -0.0534803 0.0268582 0.0195568 -0.0544722 0.0308788 0.0204255 -0.0625241 0.0294259 0.0208036 -0.0543892 0.0287934 0.022255 -0.061918 0.0263661 0.0239568 -0.0604764 0.0235198 0.017388 -0.0522211 0.0345059 0.0152346 -0.0592291 0.0381073 0.0183705 -0.0537192 0.0328627 0.0168103 -0.0611394 0.0354722 0.0185747 -0.0622595 0.0325212 0.0127402 -0.042895 0.0422792 0.0123823 -0.0464433 0.0428778 0.0164692 -0.0477801 0.0360426 0.0124705 -0.0500553 0.0427302 0.0167277 -0.0501584 0.0356103 0.0129998 -0.0535212 0.0418449 0.0139394 -0.0566395 0.0402736 0.0166438 -0.0453729 0.0357506 0.0172303 -0.0432273 0.0347696 0.0206878 0.00464607 0.0289871 0.0353262 -0.00464606 0.00450502 0.0328865 -0.00309737 0.00858536 0.032241 -0.00565069 0.00966489 0.0300011 -0.00921418 0.013411 0.0205621 -0.04061 0.0291975 0.0312525 -0.00774621 0.0113181 0.0217483 -0.041363 0.0272135 0.0227308 -0.0428611 0.0255703 0.0233911 -0.0449238 0.0244659 0.0236496 -0.0473021 0.0240337 0.0245341 -0.00736229 0.0225543 0.0236104 -0.00515748 0.0240993 0.0193152 -0.040693 0.0312828 0.0285882 -0.00993568 0.0157742 0.0271281 -0.00985224 0.018216 0.0257393 -0.00897064 0.0205388 0.0230428 -0.00253486 0.0250485 0.0181581 -0.041602 0.033218 0.0228774 0.000293131 0.0253252 0.0231276 0.00309737 0.0249068 0.0214711 0.00792425 0.0276771 0.023773 0.00565069 0.0238272 0.0226342 0.0107419 0.0257318 0.0247615 0.00774621 0.022174 0.0241096 0.0129353 0.0232643 0.0260129 0.00921418 0.0200811 0.0355959 0.00251415 0.00405402 0.0350666 0.00598005 0.00493923 0.0324037 0.00515748 0.00939285 0.0341271 0.00909841 0.00651062 0.0314799 0.00736229 0.0109378 0.0328318 0.011688 0.00867684 0.0302748 0.00897064 0.0129533 0.0312562 0.0135983 0.011312 0.028886 0.00985224 0.0152761 0.0294917 0.0147184 0.014263 0.0274259 0.00993568 0.017718 0.027641 0.014983 0.0173583 0.0258115 0.0143769 0.020418 0.0249701 -0.00645091 0.0111078 0.0217092 -0.025957 0.0165615 0.0206187 -0.0252648 0.0183854 0.0192358 0.00190609 0.0206982 0.0193881 0.00132242 0.0204434 0.0191041 -0.000376676 0.0209185 0.0308754 0.00251415 0.0012315 0.0309636 -0.00109785 0.0010839 0.0278242 0.00250176 0.00633445 0.0196698 0.000965375 0.0199723 0.0200054 0.000930611 0.0194111 0.0203049 0.00122744 0.0189102 0.0204881 0.00177635 0.0186037 0.020506 0.00243023 0.0185739 0.0229204 0.014983 0.0145358 0.0226934 0.00575865 0.0149154 0.0203757 0.00722991 0.0187918 0.0255065 0.00397301 0.0102108 0.0253254 -0.00432583 0.0105136 0.0262418 0.00115566 0.00898103 0.0210666 -0.00397301 0.0176363 0.0238796 -0.00575865 0.0129317 0.0268366 -0.00340572 0.00798613 0.0271362 -0.00310888 0.00748518 0.0301475 -0.00738681 0.00244879 0.0306057 -0.00464606 0.0016825 0.0273194 -0.00255998 0.00717873 0.0237641 0.00639368 0.0131248 0.0239164 0.00581002 0.0128701 0.0241981 0.00545296 0.012399 0.0245337 0.0054182 0.0118377 0.0248332 0.00571504 0.0113368 0.0250164 0.00626394 0.0110303 0.027043 0.0130926 0.00764094 0.0281113 0.011688 0.00585433 0.026597 0.00328075 0.00838687 0.0294065 0.00909841 0.0036881 0.0303461 0.00598005 0.00211672 0.0250343 0.00691782 0.0110005 0.0248819 0.00750149 0.0112553 0.0265356 0.0135983 0.00848951 0.0246002 0.00785855 0.0117264 0.0247712 0.0147184 0.0114405 0.0242647 0.00789331 0.0122876 0.0239652 0.00759647 0.0127885 0.0237819 0.00704757 0.013095 0.0179137 0.0107419 0.0229093 0.0193891 0.0129353 0.0204418 0.021091 0.0143769 0.0175955 0.0203536 0.0030139 0.0188286 0.0200204 0.00510481 0.0193859 0.0167506 0.00792425 0.0248546 0.020072 0.00337095 0.0192997 0.0197364 0.00340572 0.019861 0.0194369 0.00310888 0.0203619 0.0159673 0.00464607 0.0261646 0.0192536 0.00255998 0.0206684 0.0155091 0.00190532 0.0269309 0.0145947 -0.040693 0.0284603 0.0134376 -0.041602 0.0303955 0.0154879 -0.0220079 0.0269664 0.0125098 -0.0432273 0.0319471 0.0119232 -0.0453729 0.0329281 0.00921886 -0.0566395 0.037451 0.0117487 -0.0477801 0.03322 0.0120071 -0.0501584 0.0327878 0.0105141 -0.0592291 0.0352848 0.0126675 -0.0522211 0.0316834 0.0120897 -0.0611394 0.0326496 0.01365 -0.0537192 0.0300402 0.0138542 -0.0622595 0.0296986 0.0148362 -0.0544722 0.0280562 0.0160831 -0.0543892 0.0259709 0.0172402 -0.0534803 0.0240357 0.0175344 -0.061918 0.0235436 0.015705 -0.0625241 0.0266033 0.018168 -0.0518549 0.0224841 0.0187545 -0.0497093 0.0215031 0.0229364 -0.026736 0.0145091 0.0192363 -0.0604764 0.0206973 0.0207117 -0.058283 0.0182298 0.0218748 -0.0554654 0.0162845 0.0189291 -0.0473021 0.0212111 0.0186706 -0.0449238 0.0216434 0.0180103 -0.0428611 0.0227478 0.0170278 -0.041363 0.024391 0.0178056 -0.0234791 0.02309 0.0158415 -0.04061 0.026375 0.0262194 -0.0030139 0.00901846 0.0265011 -0.00337095 0.00854735 0.0265526 -0.00510481 0.00846118 0.0273372 -0.00190609 0.00714889 0.0271849 -0.00132242 0.00740366 0.0274689 0.000376675 0.00692861 0.0269032 -0.000965376 0.00787477 0.0265676 -0.000930604 0.00843599 0.0262681 -0.00122744 0.00893693 0.0260849 -0.00177634 0.00924338 0.026067 -0.00243023 0.00927322 0.0215387 -0.00691782 0.0168466 0.0215566 -0.00626394 0.0168168 0.0217398 -0.00571504 0.0165103 0.0223083 -0.00789331 0.0155595 0.0219728 -0.00785854 0.0161207 0.0216911 -0.00750149 0.0165918 0.0227911 -0.00704758 0.0147521 0.0228089 -0.00639368 0.0147223 0.0226079 -0.00759647 0.0150586 0.0226566 -0.00581002 0.014977 0.0223749 -0.00545296 0.0154481 0.0220393 -0.0054182 0.0160094 0.0187488 -0.00250176 0.0215126 0.0261973 -0.00722991 0.00905534 0.0297923 -0.00951189 0.00304294 0.0265314 -0.029018 0.00849667 0.0226581 -0.0521872 0.0149745 0.0151539 -0.000219767 0.027525 0.0118929 -0.0197259 0.0329788 0.00801967 -0.042895 0.0394567 0.00766175 -0.0464433 0.0400552 0.0082793 -0.0535212 0.0390224 0.00775001 -0.0500553 0.0399076 0.0212193 0.00571023 0.0222524 0.0221867 0.00774621 0.0206345 0.0234381 0.00921418 0.0185415 0.0248511 0.00993568 0.0161784 0.0263111 0.00985224 0.0137365 0.0277 0.00897064 0.0114138 0.0289051 0.00736229 0.00939826 0.0298289 0.00515748 0.0078533 0.0303964 0.00253485 0.00690405 0.0305618 -0.000293132 0.00662742 0.0303117 -0.00309737 0.00704581 0.0296662 -0.00565069 0.00812533 0.0286777 -0.00774621 0.00977854 0.0274263 -0.00921418 0.0118715 0.0260133 -0.00993568 0.0142346 0.025332 -0.0099981 0.0153742 0.0245533 -0.00985224 0.0166765 0.0231644 -0.00897064 0.0189992 0.0219593 -0.00736229 0.0210148 0.0210355 -0.00515748 0.0225597 0.020468 -0.00253486 0.023509 0.0203026 0.000293131 0.0237856 0.0205527 0.00309737 0.0233672 0.0211982 0.00565069 0.0222877 0.0249368 -0.00704758 0.0160351 0.0247536 -0.00759647 0.0163415 0.0218821 0.00340572 0.0211439 0.0222176 0.00337095 0.0205827 0.0224993 0.0030139 0.0201116 0.0226517 0.00243023 0.0198568 0.0221511 0.000930611 0.0206941 0.0218155 0.000965375 0.0212553 0.0215826 0.00310888 0.0216449 0.0213993 0.00255998 0.0219513 0.0213815 0.00190609 0.0219812 0.0215338 0.00132242 0.0217264 0.0224506 0.00122744 0.0201931 0.0226338 0.00177635 0.0198867 0.0249546 -0.00639368 0.0160052 0.0248023 -0.00581002 0.01626 0.0245206 -0.00545296 0.0167311 0.024185 -0.0054182 0.0172923 0.0238855 -0.00571504 0.0177933 0.0237023 -0.00626394 0.0180997 0.0236844 -0.00691782 0.0181296 0.0238368 -0.00750149 0.0178748 0.0241185 -0.00785854 0.0174037 0.024454 -0.00789331 0.0168425 0.0259098 0.00639368 0.0144078 0.02718 0.00691782 0.0122835 0.0270276 0.00750149 0.0125382 0.0267459 0.00785855 0.0130093 0.0260621 0.00581002 0.014153 0.0263438 0.00545296 0.0136819 0.0266794 0.0054182 0.0131207 0.0269789 0.00571504 0.0126197 0.0271621 0.00626394 0.0123133 0.0259276 0.00704757 0.014378 0.0261109 0.00759647 0.0140715 0.0264104 0.00789331 0.0135706 0.0294829 -0.00190609 0.00843185 0.0294651 -0.00255998 0.00846169 0.0282127 -0.00243023 0.0105562 0.0283651 -0.0030139 0.0103014 0.0286468 -0.00337095 0.00983031 0.0292819 -0.00310888 0.00876814 0.0289823 -0.00340572 0.00926909 0.0282306 -0.00177634 0.0105264 0.0284138 -0.00122744 0.0102199 0.0287133 -0.000930604 0.00971895 0.0290489 -0.000965376 0.00915773 0.0293306 -0.00132242 0.00868662 0.0213996 0.00255983 0.0219509 0.0231161 0.00255983 0.0229773 0.0213735 0.00199937 0.0219946 0.02309 0.00199937 0.023021 0.0214747 0.00147235 0.0218252 0.0231913 0.00147235 0.0228516 0.0216833 0.00108315 0.0214764 0.0233999 0.00108315 0.0225027 0.0219579 0.00090884 0.0210171 0.0236745 0.00090884 0.0220435 0.0222441 0.000983957 0.0205384 0.0239607 0.000983957 0.0215648 0.0224853 0.00129363 0.0201351 0.0242018 0.00129363 0.0211615 0.0226336 0.0017765 0.0198871 0.0243501 0.0017765 0.0209135 0.0226597 0.00233695 0.0198434 0.0243762 0.00233695 0.0208698 0.0225584 0.00286397 0.0200128 0.024275 0.00286397 0.0210392 0.0223498 0.00325318 0.0203616 0.0240664 0.00325318 0.021388 0.0220752 0.00342749 0.0208209 0.0237918 0.00342749 0.0218473 0.021789 0.00335237 0.0212996 0.0235056 0.00335237 0.0223259 0.0215479 0.0030427 0.0217029 0.0232644 0.0030427 0.0227292 0.0241185 -0.00785807 0.0174036 0.0258351 -0.00785807 0.0184299 0.0244062 -0.00790894 0.0169225 0.0261227 -0.00790894 0.0179489 0.0246766 -0.0077116 0.0164702 0.0263932 -0.0077116 0.0174966 0.0248763 -0.00730513 0.0161361 0.0265929 -0.00730513 0.0171625 0.0249658 -0.00677006 0.0159865 0.0266824 -0.00677006 0.0170129 0.0249273 -0.00621234 0.016051 0.0266438 -0.00621234 0.0170774 0.0247683 -0.00574244 0.0163168 0.0264849 -0.00574244 0.0173432 0.0245205 -0.00545344 0.0167312 0.0262371 -0.00545344 0.0177576 0.0242329 -0.00540257 0.0172123 0.0259495 -0.00540257 0.0182386 0.0239625 -0.00559991 0.0176646 0.025679 -0.00559991 0.018691 0.0237627 -0.00600637 0.0179986 0.0254793 -0.00600637 0.019025 0.0236733 -0.00654145 0.0181482 0.0253898 -0.00654145 0.0191746 0.0237118 -0.00709917 0.0180838 0.0254284 -0.00709917 0.0191101 0.0238707 -0.00756906 0.017818 0.0255873 -0.00756906 0.0188444 0.0294648 -0.00255982 0.0084621 0.0311814 -0.00255982 0.00948847 0.0294909 -0.00199937 0.00841844 0.0312075 -0.00199937 0.00944481 0.0293897 -0.00147235 0.00858781 0.0311062 -0.00147235 0.00961418 0.0291811 -0.00108315 0.00893667 0.0308976 -0.00108315 0.00996304 0.0289065 -0.000908841 0.00939592 0.030623 -0.000908841 0.0104223 0.0286203 -0.000983958 0.0098746 0.0303368 -0.000983958 0.010901 0.0283791 -0.00129362 0.0102779 0.0300957 -0.00129362 0.0113043 0.0282308 -0.0017765 0.0105259 0.0299474 -0.0017765 0.0115523 0.0282047 -0.00233695 0.0105696 0.0299213 -0.00233695 0.011596 0.028306 -0.00286397 0.0104002 0.0300225 -0.00286397 0.0114266 0.0285146 -0.00325318 0.0100514 0.0302311 -0.00325318 0.0110777 0.0287892 -0.00342749 0.00959212 0.0305057 -0.00342749 0.0106185 0.0290754 -0.00335237 0.00911345 0.0307919 -0.00335237 0.0101398 0.0293165 -0.0030427 0.00871015 0.0310331 -0.0030427 0.00973652 0.0288691 0.00709917 0.0133556 0.0289077 0.00654145 0.0132911 0.0295197 0.00886873 0.0122675 0.0278126 0.00574244 0.0151226 0.0276537 0.00621234 0.0153884 0.022537 0.00438651 0.0239459 0.028348 0.00540257 0.0142271 0.0280429 0.000886138 0.0147374 0.0286185 0.00559991 0.0137748 0.0288182 0.00600637 0.0134407 0.0228088 0.00533673 0.0234913 0.0276152 0.00677006 0.0154528 0.0277046 0.00730514 0.0153032 0.0254061 0.00940577 0.0191474 0.0262243 0.00983642 0.0177789 0.0279043 0.0077116 0.0149692 0.0270678 0.00999876 0.0163683 0.0246354 0.00871855 0.0204364 0.0239332 0.00779352 0.0216107 0.0233188 0.0066559 0.0226384 0.0279135 0.00988835 0.0149539 0.0281748 0.00790894 0.0145169 0.0287383 0.00950822 0.0135745 0.0284624 0.00785807 0.0140358 0.0287102 0.00756906 0.0136214 0.0322691 -0.000668463 0.00766929 0.0322558 0.000982914 0.00769166 0.0321031 0.00260748 0.00794701 0.0318153 0.00416093 0.00842836 0.0314002 0.00560087 0.00912262 0.0308691 0.00688804 0.0100108 0.0302365 0.00798732 0.0110687 0.0321428 -0.00230162 0.00788052 0.0262497 -0.00984535 0.0177365 0.0277429 -0.000953835 0.0152393 0.0277712 -0.0008826 0.0151919 0.0280732 -0.00983642 0.0146868 0.0272297 -0.00999876 0.0160975 0.026384 -0.00988836 0.0175118 0.0279016 -0.000312981 0.0149738 0.0279018 0.000310752 0.0149734 0.0318803 -0.00387198 0.00831959 0.0314887 -0.00533673 0.0089745 0.0309787 -0.00665591 0.0098274 0.0288914 -0.00940577 0.0133183 0.0296621 -0.00871855 0.0120293 0.0303643 -0.00779352 0.010855 0.0221547 0.00230161 0.0245852 0.0271216 0.00149907 0.0162783 0.0272298 0.00149166 0.0160973 0.0280604 0.00545344 0.0147081 0.0273872 0.00142623 0.0158341 0.0275342 0.00129847 0.0155883 0.0277719 0.000880759 0.0151908 0.0224172 0.00387198 0.0241462 0.0264458 0.000611145 0.0174086 0.0266341 0.00111547 0.0170936 0.0255592 -0.00950822 0.0188913 0.0247778 -0.00886873 0.0201982 0.024061 -0.00798733 0.021397 0.0234284 -0.00688804 0.0224549 0.0228974 -0.00560087 0.0233431 0.0269114 0.00142694 0.0166298 0.0275331 -0.00129961 0.01559 0.0272286 -0.0014919 0.0160993 0.0269103 -0.00142623 0.0166316 0.0266332 -0.00111396 0.0170951 0.0264453 -0.000609067 0.0174094 0.026379 1.13571e-06 0.0175203 0.0220284 0.000668469 0.0247965 0.0220418 -0.000982915 0.0247741 0.0221944 -0.00260748 0.0245188 0.0224823 -0.00416093 0.0240374 0.0212206 0.005714 0.0222502 0.0216022 0.0066559 0.021612 0.024216 0.00382535 0.0172406 0.0222167 0.00779352 0.0205844 0.0245115 0.00412692 0.0167463 0.0259372 0.00621234 0.014362 0.0258986 0.00677006 0.0144265 0.0229188 0.00871855 0.01941 0.0259881 0.00730514 0.0142769 0.0271017 0.00600637 0.0124144 0.0274237 0.00227838 0.0118759 0.0269019 0.00559991 0.0127484 0.027086 0.00314086 0.0124406 0.0266315 0.00540257 0.0132008 0.0266522 0.0038208 0.0131661 0.0263439 0.00545344 0.0136818 0.0261475 0.0042787 0.0140102 0.0260961 0.00574244 0.0140962 0.0256012 0.00448793 0.0149238 0.0250451 0.00443634 0.0158539 0.0271911 0.00654145 0.0122648 0.02852 0.00798732 0.0100424 0.0271526 0.00709917 0.0123292 0.0278032 0.00886873 0.0112412 0.0269937 0.00756906 0.012595 0.0270217 0.00950822 0.0125481 0.0267459 0.00785807 0.0130095 0.0261969 0.00988835 0.0139276 0.0264583 0.00790894 0.0134905 0.0253512 0.00999876 0.0153419 0.0261878 0.0077116 0.0139428 0.0245078 0.00983642 0.0167526 0.0236895 0.00940577 0.0181211 0.026294 -0.00417494 0.0137653 0.0240315 0.00357767 0.0175492 0.0217119 -0.00688804 0.0214286 0.0211808 -0.00560087 0.0223168 0.0253197 -0.0099976 0.0153947 0.0246675 -0.00988836 0.0164855 0.0238427 -0.00950822 0.0178649 0.0230612 -0.00886873 0.0191719 0.0223444 -0.00798733 0.0203706 0.0242122 -0.0038208 0.0172469 0.0247169 -0.0042787 0.0164028 0.0252632 -0.00448793 0.0154892 0.0258193 -0.00443634 0.0145592 0.0236328 0.00282049 0.018216 0.0233387 0.00189939 0.0187079 0.0231662 0.000867914 0.0189962 0.0231255 -0.000214007 0.0190644 0.0232188 -0.00128349 0.0189083 0.0234407 -0.00227838 0.0185371 0.0210922 0.00533673 0.0224649 0.0207007 0.00387198 0.0231198 0.0204381 0.00230161 0.0235589 0.0203118 0.000668469 0.0237701 0.0203252 -0.000982915 0.0237477 0.0204779 -0.00260748 0.0234924 0.0207657 -0.00416093 0.023011 0.0237784 -0.00314086 0.0179724 0.0277389 0.000214006 0.0113486 0.0276456 0.00128348 0.0115047 0.0263529 -0.00412693 0.0136667 0.026833 -0.00357767 0.0128638 0.0272316 -0.00282049 0.012197 0.0275257 -0.0018994 0.0117052 0.0276982 -0.000867915 0.0114168 0.0301637 -0.00387198 0.00729322 0.0304263 -0.00230162 0.00685415 0.0305526 -0.000668463 0.00664292 0.0305392 0.000982914 0.00666529 0.0255132 -0.00999876 0.0150711 0.0263566 -0.00983642 0.0136604 0.0271749 -0.00940577 0.012292 0.0297722 -0.00533673 0.00794813 0.0292622 -0.00665591 0.00880103 0.0286477 -0.00779352 0.00982866 0.0279456 -0.00871855 0.011003 0.0296836 0.00560087 0.00809625 0.0300987 0.00416093 0.007402 0.0291525 0.00688804 0.00898445 0.0303865 0.00260748 0.00692064 0.024267 -0.00231298 0.0122838 0.0243145 -0.00188403 0.0122042 0.0245313 -0.0017652 0.0118416 0.023941 -0.00271545 0.012829 0.0240418 -0.00232302 0.0126604 0.021747 2.27565e-06 0.0164984 0.0218862 -0.000342597 0.0162654 0.021795 -0.00074387 0.016418 0.0219368 -0.00144327 0.0161808 0.021295 -0.00227838 0.0172542 0.0210731 -0.00128349 0.0176254 0.0247175 -0.00110649 0.0115303 0.0246532 -0.000685912 0.0116379 0.0248138 -0.000378255 0.0113693 0.0217956 0.000748272 0.016417 0.0218865 0.000346731 0.016265 0.0228096 -0.00285247 0.0147211 0.023021 -0.0027009 0.0143676 0.0231887 -0.00299394 0.0140872 0.0245227 -0.00132665 0.0118561 0.0246978 -2.08294e-06 0.0115633 0.0248141 0.000373747 0.0113688 0.023191 0.00299422 0.0140833 0.0230231 0.00270168 0.0143641 0.0228119 0.00285387 0.0147174 0.0221441 -0.00161472 0.0158341 0.0221634 -0.00205198 0.0158019 0.0216327 -0.00314086 0.0166894 0.0235738 -0.00294729 0.013443 0.0237216 -0.00261605 0.0131959 0.0246537 0.00068188 0.011637 0.0247184 0.00110226 0.0115288 0.0226866 0.00248916 0.0149269 0.0224626 0.0025342 0.0153016 0.0223878 0.00212024 0.0154267 0.022165 0.0020553 0.0157992 0.0221454 0.0016181 0.015832 0.0219379 0.00144726 0.016179 0.0219747 0.00101428 0.0161174 0.0234555 0.00448793 0.0136409 0.0228994 0.00443634 0.0145709 0.0223658 0.00412692 0.0154633 0.0218858 0.00357767 0.0162662 0.0214871 0.00282049 0.016933 0.021193 0.00189939 0.0174249 0.0210205 0.000867914 0.0177133 0.0209798 -0.000214007 0.0177814 0.021974 -0.00101041 0.0161187 0.0223861 -0.00211759 0.0154294 0.0224606 -0.00253176 0.0153049 0.0220665 -0.0038208 0.0159639 0.0226847 -0.00248739 0.0149301 0.0233741 -0.0027447 0.0137771 0.0242688 0.00231009 0.0122808 0.0240436 0.00232078 0.0126573 0.0239431 0.00271351 0.0128255 0.0245237 0.001323 0.0118544 0.0245327 0.00176151 0.0118393 0.024316 0.00188098 0.0122018 0.0233762 0.00274444 0.0137736 0.0235761 0.00294643 0.0134392 0.0237236 0.00261476 0.0131925 0.0240018 0.0042787 0.0127273 0.0245065 0.0038208 0.0118832 0.0249403 0.00314086 0.0111577 0.025278 0.00227838 0.0105929 0.0254999 0.00128348 0.0102217 0.0255932 0.000214006 0.0100657 0.0255525 -0.000867915 0.0101338 0.02538 -0.0018994 0.0104222 0.0250859 -0.00282049 0.0109141 0.0246873 -0.00357767 0.0115809 0.0242072 -0.00412693 0.0123838 0.0236736 -0.00443634 0.0132762 0.0231175 -0.00448793 0.0142062 0.0225712 -0.0042787 0.0151198 0.0251481 -0.00161472 0.0176302 0.0249408 -0.00144327 0.017977 0.0249779 -0.00101041 0.0179149 0.0263802 0.00274444 0.0155697 0.0265801 0.00294643 0.0152353 0.0267276 0.00261476 0.0149886 0.026025 -0.0027009 0.0161637 0.0258136 -0.00285247 0.0165172 0.0256886 -0.00248739 0.0167263 0.0248902 -0.000342597 0.0180616 0.0255207 1.13571e-06 0.0170071 0.025587 -0.000609067 0.0168962 0.02732 0.00188098 0.0139979 0.0275367 0.00176151 0.0136355 0.0275277 0.001323 0.0136505 0.0267256 -0.00261605 0.014992 0.0265778 -0.00294729 0.0152391 0.026378 -0.0027447 0.0155733 0.0253901 -0.00211759 0.0172256 0.0251674 -0.00205198 0.017598 0.0254665 0.0025342 0.0170977 0.0265289 0.00142623 0.0153209 0.0253917 0.00212024 0.0172228 0.0263715 0.00149166 0.0155842 0.0251494 0.0016181 0.0176281 0.025169 0.0020553 0.0175953 0.0260271 0.00270168 0.0161602 0.026195 0.00299422 0.0158794 0.0275267 -0.00132665 0.0136522 0.0275353 -0.0017652 0.0136378 0.0273185 -0.00188403 0.0140004 0.0247509 2.27565e-06 0.0182945 0.0248905 0.000346731 0.0180611 0.0255875 0.000611145 0.0168954 0.0249787 0.00101428 0.0179136 0.0249419 0.00144726 0.0179751 0.026947 0.00271351 0.0146216 0.0270476 0.00232078 0.0144535 0.0276577 0.00068188 0.0134331 0.027818 0.000373747 0.0131649 0.0277017 -2.08294e-06 0.0133594 0.0263704 -0.0014919 0.0155861 0.0260521 -0.00142623 0.0161185 0.025775 -0.00111396 0.0165819 0.024799 -0.00074387 0.0182141 0.0254646 -0.00253176 0.017101 0.0260532 0.00142694 0.0161166 0.0257758 0.00111547 0.0165804 0.0247996 0.000748272 0.0182132 0.0256906 0.00248916 0.016723 0.0258158 0.00285387 0.0165135 0.0266759 0.00129847 0.0150751 0.0272727 0.00231009 0.0140769 0.0277224 0.00110226 0.013325 0.0270458 -0.00232302 0.0144565 0.0269449 -0.00271545 0.0146251 0.0269136 0.000880759 0.0146776 0.0270436 0.000310752 0.0144602 0.0270433 -0.000312981 0.0144606 0.0269129 -0.0008826 0.0146787 0.0266749 -0.00129961 0.0150768 0.0261926 -0.00299394 0.0158833 0.0276571 -0.000685912 0.013434 0.0277215 -0.00110649 0.0133264 0.0272709 -0.00231298 0.0140799 0.0278177 -0.000378255 0.0131654 -0.0182357 0.011688 -0.0218576 -0.0198114 0.0135983 -0.0192225 -0.0219156 0.0020057 -0.0157032 -0.0225837 0.00285247 -0.0145859 -0.0215544 0.000621508 -0.0163074 -0.0160009 0.00598005 -0.0255953 -0.0169405 0.00909841 -0.0240239 -0.0283367 -0.0428611 -0.00496419 -0.0276764 -0.0449238 -0.00606855 -0.0227416 -0.00293491 -0.0143219 -0.0236889 -0.0521872 -0.0127374 -0.0220312 -0.00223095 -0.0155099 -0.0157413 -0.00464606 -0.0260295 -0.0215967 -0.000929211 -0.0162366 -0.0153834 -0.00109785 -0.0266281 -0.0154716 0.00251415 -0.0264805 -0.0215758 0.0147184 -0.0162715 -0.0234266 0.014983 -0.0131762 -0.0233795 0.00293491 -0.013255 -0.0345983 -0.0477801 0.00550807 -0.0344238 -0.0453729 0.00521611 -0.0383274 -0.042895 0.0117447 -0.0242054 -0.0020057 -0.0118736 -0.0245667 -0.000621509 -0.0112695 -0.0303797 0.00464607 -0.00154737 -0.0245244 0.00092921 -0.0113402 -0.0295964 0.00792425 -0.00285738 -0.0240898 0.00223095 -0.012067 -0.0252561 0.0143769 -0.0101165 -0.0269579 0.0129353 -0.00727014 -0.0284333 0.0107419 -0.00480265 -0.0235374 -0.00285247 -0.0129909 -0.0338372 -0.0432273 0.00423515 -0.0329095 -0.041602 0.00268349 -0.0317524 -0.040693 0.000748292 -0.0305055 -0.04061 -0.00133703 -0.0293193 -0.041363 -0.00332095 -0.0315108 -0.0544722 0.000344277 -0.0306421 -0.0625241 -0.00110862 -0.0302639 -0.0543892 -0.00174104 -0.0288126 -0.061918 -0.00416834 -0.0291068 -0.0534803 -0.00367624 -0.0274179 -0.0473021 -0.00650082 -0.0275925 -0.0497093 -0.00620887 -0.0244722 -0.0554654 -0.0114274 -0.0281791 -0.0518549 -0.0052279 -0.0256353 -0.058283 -0.00948215 -0.0271107 -0.0604764 -0.00701465 -0.0336796 -0.0522211 0.00397144 -0.0358329 -0.0592291 0.00757285 -0.032697 -0.0537192 0.0023282 -0.0342573 -0.0611394 0.00493766 -0.0324928 -0.0622595 0.00198667 -0.0386853 -0.0464433 0.0123433 -0.038597 -0.0500553 0.0121957 -0.0343399 -0.0501584 0.0050758 -0.0380677 -0.0535212 0.0113105 -0.0371282 -0.0566395 0.00973907 -0.0245319 0.0135983 -0.022045 -0.0229563 0.011688 -0.0246802 -0.0273042 0.00285247 -0.0174085 -0.0266362 0.0020057 -0.0185257 -0.0274621 -0.00293491 -0.0171444 -0.0267518 -0.00223095 -0.0183324 -0.0204618 -0.00464606 -0.028852 -0.0263172 -0.000929211 -0.0190592 -0.0201039 -0.00109785 -0.0294506 -0.0262749 0.000621508 -0.0191299 -0.021661 0.00909841 -0.0268464 -0.0207215 0.00598005 -0.0284178 -0.0201922 0.00251415 -0.029303 -0.0330573 -0.0428611 -0.00778671 -0.0340398 -0.041363 -0.00614347 -0.0289259 -0.0020057 -0.0146962 -0.035226 -0.04061 -0.00415955 -0.0364729 -0.040693 -0.00207422 -0.0328996 -0.0518549 -0.00805041 -0.032313 -0.0497093 -0.00903138 -0.0284095 -0.0521872 -0.0155599 -0.0282579 -0.00285247 -0.0158134 -0.0321385 -0.0473021 -0.00932334 -0.0323969 -0.0449238 -0.00889107 -0.0281 0.00293491 -0.0160775 -0.0281471 0.014983 -0.0159987 -0.0262964 0.0147184 -0.019094 -0.0288103 0.00223095 -0.0148895 -0.0316785 0.0129353 -0.0100927 -0.0299766 0.0143769 -0.012939 -0.03763 -0.041602 -0.000139028 -0.0430479 -0.042895 0.00892216 -0.0292872 -0.000621509 -0.014092 -0.0351003 0.00464607 -0.00436989 -0.0292449 0.00092921 -0.0141627 -0.034317 0.00792425 -0.00567989 -0.0331539 0.0107419 -0.00762517 -0.0385578 -0.0432273 0.00141263 -0.0391443 -0.0453729 0.0023936 -0.0434058 -0.0464433 0.00952075 -0.0393189 -0.0477801 0.00268555 -0.0433175 -0.0500553 0.00937316 -0.0390604 -0.0501584 0.00225329 -0.0374176 -0.0537192 -0.000494316 -0.0405535 -0.0592291 0.00475033 -0.0384001 -0.0522211 0.00114892 -0.0418487 -0.0566395 0.00691656 -0.0427883 -0.0535212 0.00848794 -0.0349845 -0.0543892 -0.00456356 -0.0353626 -0.0625241 -0.00393114 -0.0362313 -0.0544722 -0.00247824 -0.0372133 -0.0622595 -0.000835851 -0.0389778 -0.0611394 0.00211515 -0.0291927 -0.0554654 -0.0142499 -0.0303559 -0.058283 -0.0123047 -0.0338274 -0.0534803 -0.00649875 -0.0318312 -0.0604764 -0.00983717 -0.0335331 -0.061918 -0.00699086 0.020622 -0.0459551 0.0281229 0.0208111 -0.0465638 0.0278066 0.0227323 -0.0440111 0.0245934 0.0208948 -0.047963 0.0276666 0.0232225 -0.0475064 0.0237736 0.0209046 -0.0472517 0.0276503 0.0231649 -0.0462914 0.0238701 0.0229998 -0.0451144 0.0241462 0.0202947 -0.0496797 0.0286702 0.021953 -0.0528811 0.0258969 0.020577 -0.0492283 0.0281981 0.0223935 -0.052014 0.0251601 0.0207826 -0.0486402 0.0278543 0.0200246 -0.0451621 0.0291221 0.0202365 -0.0406415 0.0287676 0.0196646 -0.045042 0.0297241 0.0196125 -0.0405412 0.0298113 0.0193019 -0.0451244 0.0303307 0.0223706 -0.0430151 0.0251984 0.0219257 -0.0421566 0.0259425 0.0203525 -0.0454749 0.0285736 0.021411 -0.0414617 0.0268034 0.0208422 -0.0409515 0.0277547 0.0227502 -0.051011 0.0245637 0.023012 -0.0499026 0.0241258 0.023171 -0.0487225 0.0238598 0.0199586 -0.0499578 0.0292324 0.0208756 -0.054107 0.0276987 0.0214418 -0.0535859 0.0267518 0.0186385 -0.0491271 0.0314402 0.0173349 -0.0529257 0.0336205 0.018908 -0.0496073 0.0309895 0.0178496 -0.0536206 0.0327597 0.019236 -0.0499201 0.0304409 0.0183657 -0.0471192 0.0318964 0.016038 -0.0475758 0.0357894 0.0183559 -0.0478305 0.0319128 0.0160957 -0.0487908 0.0356929 0.0184494 -0.0485184 0.0317565 0.0189658 -0.0454025 0.0308928 0.0173076 -0.0422012 0.0336661 0.0186835 -0.045854 0.0313649 0.016867 -0.0430682 0.034403 0.0184779 -0.0464421 0.0317087 0.018989 -0.0406536 0.0308541 0.0183849 -0.0409752 0.0318643 0.0178187 -0.0414963 0.0328112 0.0184184 -0.0541307 0.0318083 0.019024 -0.0544407 0.0307955 0.0195959 -0.0500402 0.029839 0.0196481 -0.054541 0.0297517 0.0202716 -0.0544287 0.0287089 0.0162607 -0.0499678 0.0354169 0.0165282 -0.0510711 0.0349696 0.0168899 -0.0520671 0.0343647 0.0165104 -0.0440712 0.0349994 0.0162486 -0.0451796 0.0354373 0.0160895 -0.0463598 0.0357033 0.0140743 -0.0471192 0.0293305 0.0119572 -0.0451796 0.0328713 0.0141865 -0.0464421 0.0291428 0.012219 -0.0440712 0.0324335 0.0143921 -0.045854 0.028799 0.0143471 -0.0491271 0.0288742 0.0122368 -0.0510711 0.0324037 0.014158 -0.0485184 0.0291906 0.0119694 -0.0499678 0.032851 0.0140645 -0.0478305 0.0293469 0.0118043 -0.0487908 0.033127 0.0117466 -0.0475758 0.0332235 0.0117981 -0.0463598 0.0331374 0.0146166 -0.0496073 0.0284236 0.0130435 -0.0529257 0.0310546 0.0125985 -0.0520671 0.0317988 0.0125756 -0.0430682 0.031837 0.0130162 -0.0422012 0.0311002 0.0146744 -0.0454025 0.0283269 0.0160034 -0.0496797 0.0261043 0.0165842 -0.054107 0.0251328 0.0156672 -0.0499578 0.0266664 0.0159802 -0.0544287 0.026143 0.0153045 -0.0500402 0.027273 0.0166034 -0.047963 0.0251007 0.0187206 -0.0499026 0.0215599 0.0164912 -0.0486402 0.0252884 0.0184588 -0.051011 0.0219977 0.0162856 -0.0492283 0.0256322 0.0163306 -0.0459551 0.025557 0.018441 -0.0440111 0.0220275 0.0165198 -0.0465638 0.0252406 0.0187084 -0.0451144 0.0215802 0.0166132 -0.0472517 0.0250843 0.0153732 -0.045042 0.0271581 0.0159451 -0.0406415 0.0262017 0.0157332 -0.0451621 0.0265562 0.0165508 -0.0409515 0.0251888 0.0160611 -0.0454749 0.0260076 0.0135273 -0.0414963 0.0302453 0.0140935 -0.0409752 0.0292984 0.0150105 -0.0451244 0.0277648 0.0146976 -0.0406536 0.0282882 0.0153211 -0.0405412 0.0272454 0.0153567 -0.054541 0.0271858 0.0147326 -0.0544407 0.0282295 0.0149446 -0.0499201 0.027875 0.014127 -0.0541307 0.0292424 0.0135582 -0.0536206 0.0301937 0.0181021 -0.052014 0.0225942 0.0176616 -0.0528811 0.023331 0.0171504 -0.0535859 0.0241859 0.0188735 -0.0462914 0.0213042 0.0189311 -0.0475064 0.0212077 0.0188796 -0.0487225 0.0212938 0.0171196 -0.0414617 0.0242375 0.0176343 -0.0421566 0.0233766 0.0180793 -0.0430151 0.0226324 -0.0297436 -0.047963 -0.00261129 -0.0274159 -0.0475064 -0.00650425 -0.0297338 -0.0472517 -0.00262765 -0.0274736 -0.0462914 -0.0064078 -0.0298273 -0.0465638 -0.00247133 -0.0298558 -0.0486402 -0.00242361 -0.0276264 -0.0499026 -0.00615212 -0.0274674 -0.0487225 -0.00641815 -0.0322727 -0.0471192 0.00161854 -0.0346004 -0.0475758 0.0055115 -0.0322825 -0.0478305 0.0016349 -0.0345427 -0.0487908 0.00541505 -0.032189 -0.0485184 0.00147858 -0.0316726 -0.0454025 0.000614927 -0.0333308 -0.0422012 0.00338822 -0.0319549 -0.045854 0.00108703 -0.0337714 -0.0430682 0.00412506 -0.0321605 -0.0464421 0.00143085 -0.0300164 -0.0459551 -0.00215502 -0.0287127 -0.0421566 -0.00433535 -0.0302859 -0.0454749 -0.00170434 -0.0292274 -0.0414617 -0.00347453 -0.0306139 -0.0451621 -0.00115579 -0.0303437 -0.0496797 -0.00160768 -0.0286855 -0.0528811 -0.00438097 -0.0300614 -0.0492283 -0.00207978 -0.0282449 -0.052014 -0.00511781 -0.0278883 -0.051011 -0.00571424 -0.0319999 -0.0491271 0.00116227 -0.0333036 -0.0529257 0.0033426 -0.0317304 -0.0496073 0.00071159 -0.0327889 -0.0536206 0.00248177 -0.0314024 -0.0499201 0.000163041 -0.0313365 -0.0451244 5.27951e-05 -0.0322535 -0.0409752 0.00158642 -0.0328197 -0.0414963 0.00253335 -0.0297963 -0.0409515 -0.00252321 -0.0304019 -0.0406415 -0.00151031 -0.0309738 -0.045042 -0.000553824 -0.0310259 -0.0405412 -0.0004666 -0.0316495 -0.0406536 0.000576206 -0.0276386 -0.0451144 -0.00613175 -0.0279061 -0.0440111 -0.00568446 -0.0282678 -0.0430151 -0.00507954 -0.0306798 -0.0499578 -0.00104555 -0.0297628 -0.054107 -0.00257917 -0.0291966 -0.0535859 -0.0035261 -0.03222 -0.0541307 0.00153045 -0.0316144 -0.0544407 0.000517555 -0.0310425 -0.0500402 -0.000438928 -0.0309903 -0.054541 -0.000526152 -0.0303668 -0.0544287 -0.00156896 -0.0343777 -0.0499678 0.00513899 -0.0341102 -0.0510711 0.00469171 -0.0337485 -0.0520671 0.00408679 -0.034128 -0.0440712 0.00472149 -0.0343898 -0.0451796 0.00515936 -0.0345489 -0.0463598 0.00542539 -0.034035 -0.047963 -0.00517721 -0.0319178 -0.0499026 -0.00871804 -0.0341472 -0.0486402 -0.00498953 -0.0321797 -0.051011 -0.00828016 -0.0343528 -0.0492283 -0.0046457 -0.0340252 -0.0472517 -0.00519357 -0.0317073 -0.0475064 -0.00907017 -0.0317588 -0.0487225 -0.00898407 -0.0365641 -0.0471192 -0.000947378 -0.0386812 -0.0451796 0.00259344 -0.0364519 -0.0464421 -0.00113507 -0.0384194 -0.0440712 0.00215556 -0.0362463 -0.045854 -0.0014789 -0.0365739 -0.0478305 -0.000931032 -0.0388918 -0.0475758 0.00294557 -0.0388403 -0.0463598 0.00285947 -0.0362913 -0.0491271 -0.00140365 -0.0384016 -0.0510711 0.00212578 -0.0364804 -0.0485184 -0.00108734 -0.0386691 -0.0499678 0.00257307 -0.0388341 -0.0487908 0.00284913 -0.0343078 -0.0459551 -0.00472095 -0.0321975 -0.0440111 -0.00825039 -0.0341187 -0.0465638 -0.00503726 -0.03193 -0.0451144 -0.00869767 -0.031765 -0.0462914 -0.00897373 -0.0352652 -0.045042 -0.00311974 -0.0346933 -0.0406415 -0.00407623 -0.0349053 -0.0451621 -0.00372171 -0.0340876 -0.0409515 -0.00508913 -0.0345773 -0.0454749 -0.00427026 -0.035964 -0.0454025 -0.00195099 -0.0365449 -0.0409752 -0.000979505 -0.0356279 -0.0451244 -0.00251313 -0.0359409 -0.0406536 -0.00198972 -0.0353173 -0.0405412 -0.00303252 -0.0353339 -0.0500402 -0.00300485 -0.0359058 -0.0544407 -0.00204837 -0.0356938 -0.0499201 -0.00240288 -0.0365114 -0.0541307 -0.00103547 -0.0360218 -0.0496073 -0.00185434 -0.0346351 -0.0496797 -0.00417361 -0.0340542 -0.054107 -0.00514509 -0.0349712 -0.0499578 -0.00361147 -0.0346582 -0.0544287 -0.00413488 -0.0352817 -0.054541 -0.00309208 -0.0335188 -0.0414617 -0.00604045 -0.0330041 -0.0421566 -0.00690128 -0.0325592 -0.0430151 -0.00764546 -0.0380628 -0.0430682 0.00155914 -0.0376222 -0.0422012 0.000822299 -0.0371111 -0.0414963 -3.25736e-05 -0.0370802 -0.0536206 -8.41466e-05 -0.0375949 -0.0529257 0.000776679 -0.0380399 -0.0520671 0.00152086 -0.0325363 -0.052014 -0.00768374 -0.0329768 -0.0528811 -0.0069469 -0.033488 -0.0535859 -0.00609203</float_array>
                    <technique_common>
                        <accessor count="1025" source="#shape0-lib-positions-array" stride="3">
                            <param name="X" type="float"/>
                            <param name="Y" type="float"/>
                            <param name="Z" type="float"/>
                        </accessor>
                    </technique_common>
                </source>
                <vertices id="shape0-lib-vertices">
                    <input semantic="POSITION" source="#shape0-lib-positions"/>
                </vertices>
                <triangles count="2090">
                    <input offset="0" semantic="VERTEX" source="#shape0-lib-vertices"/>
                    <p>0 1 2 2 1 3 2 3 4 4 3 5 4 5 6 6 5 7 6 7 8 8 7 9 8 9 10 10 9 11 10 11 12 12 11 13 12 13 14 14 13 15 14 15 16 15 17 16 16 17 18 16 18 19 19 18 20 19 20 21 21 20 22 21 22 23 23 22 24 23 24 25 25 24 26 25 26 27 27 26 28 27 28 29 29 28 30 29 30 31 31 30 32 31 32 0 0 32 33 0 33 1 34 35 36 37 38 39 39 38 40 39 40 41 41 40 42 43 44 45 45 44 46 45 46 42 42 46 47 42 47 41 48 49 50 50 49 51 50 51 43 43 51 52 43 52 44 53 54 55 55 54 56 55 56 57 57 56 58 57 58 48 48 58 59 48 59 49 55 60 53 53 60 61 53 61 62 36 35 63 63 35 64 63 64 65 66 67 68 68 67 65 67 69 65 65 69 70 65 70 63 63 70 71 63 71 37 37 71 72 37 72 38 73 74 75 66 76 67 67 76 77 67 77 75 75 77 78 75 78 73 74 79 75 75 79 62 75 62 80 80 62 61 79 81 62 62 81 82 62 82 83 83 82 84 83 84 85 85 84 86 85 86 87 87 86 88 36 89 34 34 89 90 34 90 91 91 90 92 91 92 93 93 92 94 93 94 95 95 94 96 95 96 97 97 96 98 97 98 99 99 98 100 99 100 88 88 100 101 88 101 87 102 103 104 105 106 107 108 109 110 111 112 10 10 112 113 10 113 8 8 113 6 6 113 114 6 114 4 4 114 115 4 115 2 116 117 118 118 117 2 119 31 117 117 31 0 117 0 2 120 23 121 121 23 25 121 25 27 10 12 122 122 12 14 122 14 123 123 14 16 123 16 19 124 125 126 126 125 127 127 125 128 127 128 109 129 130 117 117 130 131 117 131 119 131 132 119 119 132 133 119 133 134 134 135 119 119 135 136 119 136 137 137 136 138 137 138 110 110 138 139 110 139 108 134 140 135 135 140 141 135 141 142 142 141 143 142 143 144 144 143 145 144 145 116 116 145 146 116 146 117 117 146 147 117 147 129 148 149 118 118 149 150 118 150 116 115 151 2 2 151 152 2 152 118 118 152 153 118 153 148 151 154 152 152 154 155 152 155 153 153 155 156 153 156 157 157 156 158 157 158 159 160 161 162 161 163 162 162 163 164 162 164 165 164 166 165 165 166 167 165 167 168 168 167 169 168 169 170 170 169 171 170 171 172 172 171 173 172 173 174 175 176 174 174 176 177 174 177 172 175 178 176 176 178 179 176 179 180 181 176 182 182 176 183 184 185 103 103 185 186 103 186 104 104 186 187 104 187 188 188 187 189 190 191 192 193 194 195 195 194 196 195 196 121 121 196 197 197 198 121 121 198 199 121 199 120 120 199 200 201 188 202 202 188 122 202 122 203 204 104 205 205 104 188 205 188 206 206 188 201 207 208 123 207 123 209 208 210 123 123 210 211 123 211 122 122 211 212 122 212 203 204 209 104 104 209 123 104 123 102 102 123 19 102 19 120 120 19 21 120 21 23 189 160 188 188 160 162 188 162 122 122 162 213 122 213 10 10 213 107 10 107 111 111 107 106 191 124 192 192 124 126 192 126 214 214 126 215 214 215 180 180 215 216 180 216 176 176 216 217 176 217 183 179 184 180 180 184 103 180 103 214 214 103 102 214 102 192 192 102 120 192 120 190 190 120 200 158 105 159 159 105 107 159 107 218 218 107 213 218 213 219 219 213 162 219 162 220 220 162 165 220 165 221 221 165 222 221 222 223 128 193 109 109 193 195 109 195 110 110 195 121 110 121 137 137 121 27 137 27 119 119 27 29 119 29 31 53 220 221 53 221 54 54 221 223 54 223 56 56 223 222 56 222 58 58 222 165 58 165 59 59 165 168 59 168 49 49 168 170 49 170 51 51 170 172 51 172 52 52 172 177 52 177 44 44 177 176 44 176 46 46 176 181 46 181 47 47 181 182 47 182 41 41 182 183 41 183 39 39 183 217 39 217 37 127 63 126 126 63 215 215 63 216 216 63 37 216 37 217 63 127 109 63 109 36 36 109 108 36 108 89 89 108 139 89 139 90 90 139 138 90 138 92 92 138 136 92 136 94 94 136 135 94 135 96 135 142 96 96 142 144 96 144 98 98 144 116 98 116 100 100 116 150 100 150 101 101 150 149 101 149 87 87 149 148 87 148 85 85 148 153 85 153 83 83 153 157 83 157 62 62 157 159 159 218 62 62 218 219 62 219 53 53 219 220 38 179 40 40 179 178 40 178 42 42 178 175 42 175 45 45 175 174 45 174 43 43 174 173 43 173 50 50 173 171 50 171 48 48 171 169 48 169 57 57 169 167 57 167 55 55 167 166 55 166 60 60 166 164 60 164 61 61 164 163 61 163 80 80 163 161 80 161 75 75 161 160 75 160 67 67 160 189 67 189 69 69 189 187 69 187 70 70 187 186 70 186 71 71 186 185 71 185 72 72 185 184 72 184 38 38 184 179 84 224 86 86 224 225 86 225 88 88 225 226 88 226 99 99 226 227 99 227 97 97 227 228 97 228 95 95 228 229 95 229 93 93 229 230 93 230 91 91 230 231 91 231 34 34 231 232 34 232 35 35 232 233 35 233 64 64 233 234 64 234 65 65 234 235 65 235 68 68 235 236 68 236 66 66 236 237 66 237 76 237 238 76 76 238 239 76 239 77 77 239 240 77 240 78 78 240 241 78 241 73 73 241 242 73 242 74 74 242 243 74 243 79 79 243 244 79 244 81 81 244 245 81 245 82 82 245 246 82 246 84 84 246 247 84 247 224 239 248 249 239 249 240 224 250 251 1 252 3 3 252 253 254 255 243 250 224 256 256 224 247 256 247 257 257 247 246 257 246 258 258 246 245 258 245 259 259 245 255 255 245 244 255 244 243 254 11 260 260 11 9 260 9 261 261 9 7 261 7 253 253 7 5 253 5 3 262 18 263 263 18 17 263 17 264 264 17 15 264 15 265 265 15 13 265 13 266 13 11 266 266 11 254 266 254 267 267 254 243 267 243 268 268 243 242 268 242 269 269 242 241 269 241 270 270 241 240 270 240 271 271 240 249 225 224 272 273 230 274 274 230 229 274 229 275 275 229 228 276 33 277 277 33 32 277 32 278 278 32 30 278 30 279 279 30 28 279 28 280 276 272 33 33 272 224 33 224 1 1 224 251 1 251 252 225 272 226 226 272 281 226 281 227 227 281 282 227 282 228 228 282 283 228 283 275 273 280 230 230 280 28 230 28 231 231 28 232 262 248 18 18 248 239 18 239 20 233 284 234 234 284 285 234 285 235 286 239 287 287 239 238 287 238 288 285 289 235 235 289 290 235 290 236 236 290 288 236 288 237 237 288 238 20 239 22 22 239 286 22 286 24 24 286 291 24 291 26 26 291 292 26 292 28 28 292 293 28 293 232 232 293 294 232 294 233 233 294 295 233 295 284 147 281 129 129 281 272 129 272 130 130 272 276 130 276 131 131 276 277 131 277 132 132 277 278 132 278 133 133 278 279 133 279 134 134 279 280 134 280 140 140 280 273 140 273 141 141 273 274 141 274 143 143 274 275 143 275 145 145 275 283 145 283 146 146 283 282 146 282 147 147 282 281 202 267 201 201 267 268 201 268 206 206 268 269 206 269 205 205 269 270 205 270 204 204 270 271 204 271 209 209 271 249 209 249 207 207 249 248 207 248 208 208 248 262 208 262 210 210 262 263 210 263 211 211 263 264 211 264 212 212 264 265 212 265 203 203 265 266 203 266 202 202 266 267 158 257 105 105 257 258 105 258 106 106 258 259 106 259 111 111 259 255 111 255 112 112 255 254 112 254 113 113 254 260 113 260 114 114 260 261 114 261 115 115 261 253 115 253 151 151 253 252 151 252 154 154 252 251 154 251 155 155 251 250 155 250 156 156 250 256 156 256 158 158 256 257 199 291 200 200 291 286 200 286 190 190 286 287 190 287 191 191 287 288 191 288 124 124 288 290 124 290 125 125 290 289 125 289 128 128 289 285 128 285 193 193 285 284 193 284 194 194 284 295 194 295 196 196 295 294 196 294 197 197 294 293 197 293 198 198 293 292 198 292 199 199 292 291 296 297 298 298 297 299 298 299 300 300 299 301 300 301 302 302 301 303 302 303 304 304 303 305 304 305 306 306 305 307 306 307 308 308 307 309 308 309 310 310 309 311 310 311 312 312 311 313 312 313 314 314 313 315 314 315 316 316 315 317 316 317 318 318 317 319 318 319 320 320 319 321 320 321 322 322 321 323 322 323 296 296 323 297 324 325 326 326 325 327 326 327 328 328 327 329 328 329 330 330 329 331 330 331 332 332 331 333 332 333 334 334 333 335 334 335 336 336 335 337 336 337 338 338 337 339 338 339 340 340 339 341 340 341 342 342 341 343 342 343 344 344 343 345 344 345 346 346 345 347 346 347 348 348 347 349 348 349 350 350 349 351 350 351 324 324 351 325 352 353 354 354 353 355 354 355 356 356 355 357 356 357 358 358 357 359 358 359 360 360 359 361 360 361 362 362 361 363 362 363 364 364 363 365 364 365 366 366 365 367 366 367 368 368 367 369 368 369 370 370 369 371 370 371 372 372 371 373 372 373 374 374 373 375 374 375 376 376 375 377 376 377 378 378 377 379 378 379 352 352 379 353 380 381 382 383 384 385 386 387 388 388 387 389 385 384 390 391 392 393 393 392 394 394 392 395 394 395 396 393 397 391 391 397 398 391 398 384 384 398 399 384 399 390 396 395 400 400 395 401 400 401 402 402 401 403 402 403 382 382 403 404 382 404 380 405 406 387 387 406 407 407 408 387 387 408 409 387 409 410 381 389 382 382 389 387 382 387 411 411 387 410 412 405 357 413 371 414 414 371 369 414 369 415 416 373 417 417 373 371 417 371 418 418 371 413 415 369 419 419 369 367 419 367 420 420 367 365 420 365 387 365 363 387 387 363 361 387 361 405 405 361 359 405 359 357 357 355 412 412 355 353 412 353 421 421 353 379 421 379 422 422 379 377 422 377 423 423 377 375 416 424 373 373 424 425 373 425 375 375 425 426 375 426 423 321 319 385 301 299 427 319 317 385 385 317 428 385 428 383 383 428 429 383 429 430 430 429 431 430 431 386 386 431 432 386 432 387 387 432 433 387 433 420 331 413 333 333 413 414 333 414 335 335 414 337 427 299 434 434 299 297 434 297 385 385 297 323 385 323 321 307 349 347 313 435 436 331 329 413 413 329 327 413 327 437 437 327 325 437 325 438 438 325 351 438 351 439 439 351 349 439 349 440 349 307 440 440 307 305 440 305 441 317 315 428 428 315 313 428 313 442 442 313 436 414 443 337 337 443 444 337 444 339 339 444 445 339 445 341 313 311 341 341 311 309 341 309 343 343 309 307 343 307 345 345 307 347 445 446 341 341 446 447 341 447 313 313 447 448 313 448 435 427 449 301 301 449 450 301 450 303 303 450 451 303 451 305 305 451 452 305 452 441 453 454 455 455 454 456 457 455 458 458 455 456 458 456 459 459 456 460 459 460 461 462 463 464 464 463 465 464 465 466 466 465 467 466 467 468 468 467 469 468 469 470 470 469 471 470 471 458 458 471 472 458 472 457 462 473 474 474 473 475 474 475 476 476 475 477 476 477 478 478 477 479 478 479 480 480 479 481 480 481 482 482 481 483 482 483 484 484 483 461 484 461 485 485 461 460 332 334 486 312 314 487 487 314 455 455 314 316 455 316 453 348 488 346 346 488 489 346 489 344 332 486 330 328 490 326 326 490 491 326 491 324 324 491 492 324 492 350 350 492 493 350 493 348 348 493 494 348 494 488 340 495 338 338 495 496 338 496 336 336 496 497 336 497 334 334 497 498 334 498 486 487 499 312 312 499 500 312 500 310 310 500 501 310 501 308 308 501 502 308 502 306 306 502 503 306 503 504 316 318 453 453 318 320 453 320 505 505 320 322 505 322 506 506 322 296 506 296 507 507 296 298 507 298 508 508 298 300 508 300 509 509 300 302 509 302 510 510 302 344 510 344 511 511 344 489 302 304 344 344 304 306 344 306 342 342 306 504 342 504 340 340 504 512 340 512 495 362 364 513 358 360 463 463 360 362 463 362 514 514 362 513 486 515 370 370 515 516 370 516 368 368 516 517 368 517 366 366 517 518 366 518 364 364 518 519 364 519 513 376 378 520 520 378 352 520 352 521 521 352 354 521 354 522 522 354 356 522 356 523 328 330 490 490 330 486 490 486 524 524 486 525 486 370 525 525 370 372 525 372 526 520 527 376 376 527 528 376 528 374 374 528 529 374 529 372 372 529 530 372 530 526 531 532 463 462 474 463 463 474 533 463 533 531 356 358 523 523 358 463 523 463 534 534 463 532 492 491 413 413 491 418 418 491 490 418 490 417 413 437 492 492 437 438 492 438 493 493 438 439 493 439 494 494 439 440 494 440 488 488 440 441 488 441 489 489 441 452 489 452 511 511 452 451 511 451 510 510 451 450 510 450 509 509 450 449 509 449 508 508 449 427 508 427 507 507 427 434 507 434 506 506 434 385 506 385 505 505 385 390 505 390 453 453 390 399 453 399 454 454 399 398 454 398 456 456 398 397 456 397 460 460 397 393 460 393 485 485 393 394 485 394 484 484 394 396 484 396 482 482 396 400 482 400 480 480 400 402 480 402 478 478 402 382 478 382 476 476 382 411 476 411 474 474 411 410 474 410 533 533 410 409 533 409 531 531 409 408 531 408 532 532 408 407 532 407 534 534 407 406 534 406 523 523 406 405 523 405 522 522 405 412 522 412 521 521 412 421 521 421 520 520 421 422 520 422 527 527 422 423 527 423 528 528 423 426 528 426 529 529 426 425 529 425 530 530 425 424 530 424 526 526 424 416 526 416 525 525 416 417 525 417 524 524 417 490 535 536 537 538 539 535 540 541 542 543 544 545 546 547 548 549 550 540 551 552 553 537 554 546 548 555 556 557 558 559 543 560 544 544 560 561 544 561 562 563 564 538 556 565 566 559 567 568 568 569 570 570 571 572 572 573 549 574 557 575 575 557 559 575 559 576 576 559 568 576 568 577 577 568 570 577 570 578 578 570 572 578 572 579 579 572 549 579 549 580 580 549 540 580 540 581 581 540 542 581 542 545 545 542 582 545 582 543 561 583 562 562 583 584 562 584 585 585 584 586 585 586 551 553 587 563 588 589 590 566 591 592 592 593 588 594 557 595 595 557 574 595 574 596 596 574 597 596 597 590 590 597 598 590 598 588 588 598 599 588 599 592 592 599 600 592 600 566 566 600 601 566 601 556 556 601 602 556 602 548 548 602 603 548 603 546 546 603 604 546 604 537 537 604 605 537 605 535 535 605 606 535 606 538 538 606 607 538 607 563 563 607 608 563 608 553 553 608 609 553 609 551 551 609 610 551 610 585 576 472 575 575 472 471 575 471 574 574 471 469 574 469 597 597 469 467 597 467 598 598 467 465 598 465 599 599 465 463 599 463 600 600 463 514 600 514 601 601 514 513 601 513 602 602 513 519 602 519 603 603 519 518 603 518 604 604 518 517 604 517 605 605 517 516 605 516 606 606 516 515 606 515 607 607 515 486 607 486 608 486 498 608 608 498 497 608 497 609 609 497 496 609 496 610 610 496 495 610 495 585 585 495 512 585 512 562 562 512 504 562 504 544 544 504 503 544 503 545 545 503 502 545 502 581 581 502 501 581 501 580 580 501 500 580 500 579 579 500 499 579 499 578 578 499 487 578 487 577 577 487 455 577 455 576 576 455 457 576 457 472 611 612 613 614 615 616 617 618 619 620 621 622 623 624 625 626 627 628 629 630 611 631 632 633 633 632 634 635 636 633 637 638 614 639 640 641 620 642 621 621 642 643 621 643 644 645 646 635 616 647 648 649 650 651 652 617 653 653 617 619 653 619 654 655 620 613 613 620 622 613 622 611 611 622 654 611 654 629 629 654 619 629 619 656 634 657 633 633 657 658 633 658 635 635 658 644 635 644 645 645 644 643 645 643 659 631 660 632 632 660 661 632 661 637 637 614 632 632 614 616 632 616 662 648 663 623 625 664 649 665 666 626 616 648 662 662 648 623 662 623 667 667 623 625 667 625 668 625 649 668 668 649 651 668 651 669 670 665 671 671 665 626 671 626 652 652 626 628 652 628 617 617 628 672 673 674 639 675 665 641 641 665 670 641 670 639 639 670 669 639 669 673 673 669 651 673 651 676 671 414 670 670 414 415 670 415 669 669 415 419 669 419 668 668 419 420 668 420 667 667 420 433 667 433 662 662 433 432 662 432 632 632 432 431 632 431 634 431 429 634 634 429 428 634 428 657 657 428 442 657 442 658 658 442 436 658 436 644 644 436 435 644 435 621 621 435 448 621 448 622 622 448 447 622 447 654 654 447 446 654 446 653 653 446 445 653 445 652 652 445 444 652 444 671 671 444 443 671 443 414 479 403 481 481 403 401 481 401 483 483 401 395 483 395 461 461 395 392 461 392 459 459 392 391 459 391 458 458 391 384 458 384 470 470 384 383 470 383 468 468 383 430 468 430 466 466 430 386 466 386 464 464 386 388 464 388 462 462 388 389 462 389 473 473 389 381 473 381 475 475 381 380 475 380 477 477 380 404 477 404 479 479 404 403 616 615 596 596 615 595 615 614 595 595 614 594 648 647 589 589 647 590 647 616 590 590 616 596 623 663 593 593 663 588 663 648 588 588 648 589 625 624 591 591 624 592 624 623 592 592 623 593 649 664 565 565 664 566 664 625 566 566 625 591 651 650 555 555 650 556 650 649 556 556 649 565 673 676 547 547 676 548 676 651 548 548 651 555 639 674 554 554 674 546 674 673 546 546 673 547 641 640 536 536 640 537 640 639 537 537 639 554 665 675 539 539 675 535 675 641 535 535 641 536 626 666 564 564 666 538 666 665 538 538 665 539 628 627 587 587 627 563 627 626 563 563 626 564 617 672 552 552 672 553 672 628 553 553 628 587 619 618 586 586 618 551 618 617 551 551 617 552 629 656 583 583 656 584 656 619 584 584 619 586 611 630 560 560 630 561 630 629 561 561 629 583 613 612 582 582 612 543 612 611 543 543 611 560 620 655 541 541 655 542 655 613 542 542 613 582 643 642 550 550 642 540 642 620 540 540 620 541 645 659 573 573 659 549 659 643 549 549 643 550 635 646 571 571 646 572 646 645 572 572 645 573 633 636 569 569 636 570 636 635 570 570 635 571 660 631 567 567 631 568 631 633 568 568 633 569 637 661 558 558 661 559 661 660 559 559 660 567 614 638 594 594 638 557 638 637 557 557 637 558 677 678 679 679 678 680 681 682 679 679 682 683 679 683 677 684 685 686 686 685 687 686 687 688 688 687 689 688 689 690 690 689 691 690 691 681 681 691 692 681 692 682 678 693 680 680 693 694 680 694 695 696 697 698 699 700 701 701 700 702 701 702 703 703 702 704 694 705 695 695 705 706 695 706 704 704 706 707 704 707 703 701 698 699 699 698 697 699 697 708 708 697 709 708 709 710 710 711 708 708 711 712 708 712 686 686 712 713 686 713 684 714 715 716 716 715 717 716 717 718 685 719 687 687 719 720 687 720 721 721 720 722 721 722 723 723 722 718 723 718 724 724 718 717 725 726 727 727 726 728 727 728 714 714 728 729 714 729 715 698 730 696 696 730 731 696 731 732 732 731 733 732 733 725 725 733 734 725 734 726 735 736 737 737 736 738 739 740 741 741 740 742 741 742 743 743 742 744 736 745 738 738 745 746 738 746 744 744 746 747 744 747 743 748 749 750 750 749 751 750 751 752 753 754 755 741 755 739 739 755 754 739 754 756 756 754 757 756 757 750 750 757 758 750 758 748 759 760 737 737 760 761 737 761 735 762 763 759 759 763 764 759 764 760 752 765 750 750 765 766 750 766 767 767 766 768 767 768 769 769 768 770 769 770 762 762 770 771 762 771 763 765 772 766 766 772 773 766 773 774 774 773 775 774 775 776 776 775 777 778 779 780 780 779 781 780 781 777 777 781 782 777 782 776 783 784 785 785 784 786 785 786 778 778 786 787 778 787 779 755 788 753 753 788 789 753 789 790 790 789 791 790 791 783 783 791 792 783 792 784 698 766 774 698 774 730 730 774 776 730 776 731 731 776 782 731 782 733 733 782 781 733 781 734 734 781 779 734 779 726 726 779 787 726 787 728 728 787 786 728 786 729 729 786 784 729 784 715 715 784 792 715 792 717 717 792 791 717 791 724 724 791 789 724 789 723 723 789 788 723 788 721 721 788 755 721 755 687 689 687 741 741 687 755 689 741 743 689 743 691 691 743 747 691 747 692 692 747 746 692 746 682 682 746 745 682 745 683 683 745 736 683 736 677 677 736 735 677 735 678 678 735 761 678 761 693 693 761 760 693 760 694 694 760 764 694 764 705 705 764 763 705 763 706 706 763 771 706 771 707 707 771 770 707 770 703 703 770 768 703 768 701 698 701 766 766 701 768 720 754 722 722 754 753 722 753 718 718 753 790 718 790 716 716 790 783 716 783 714 714 783 785 714 785 727 727 785 778 727 778 725 725 778 780 725 780 732 732 780 777 732 777 696 696 777 775 696 775 697 697 775 773 697 773 709 709 773 772 709 772 710 710 772 765 710 765 711 711 765 752 711 752 712 712 752 751 712 751 713 713 751 749 713 749 684 684 749 748 684 748 685 685 748 758 685 758 719 719 758 757 719 757 720 720 757 754 690 742 688 688 742 740 688 740 686 686 740 739 686 739 708 708 739 756 708 756 699 699 756 750 699 750 700 700 750 767 700 767 702 702 767 769 702 769 704 704 769 762 704 762 695 695 762 759 695 759 680 680 759 737 680 737 679 679 737 738 679 738 681 681 738 744 681 744 690 690 744 742 793 794 795 796 797 798 798 797 799 798 799 794 794 799 800 794 800 795 801 802 803 803 802 804 803 804 805 806 807 808 808 807 809 808 809 810 795 811 793 793 811 812 793 812 813 813 812 814 813 814 806 806 814 815 806 815 807 804 816 805 805 816 817 805 817 796 796 817 818 796 818 797 819 820 801 801 820 821 801 821 802 822 823 824 824 823 825 824 825 826 827 828 829 829 828 830 829 830 831 832 833 834 834 833 835 834 835 836 809 837 810 810 837 838 810 838 832 832 838 839 832 839 833 825 840 826 826 840 841 826 841 842 842 841 843 842 843 819 819 843 844 819 844 820 830 845 831 831 845 846 831 846 822 822 846 847 822 847 823 835 848 836 836 848 849 836 849 827 827 849 850 827 850 828 851 852 853 853 852 854 853 854 855 856 857 858 858 857 859 858 859 860 859 861 860 860 861 862 860 862 851 851 862 863 851 863 852 864 865 856 856 865 866 856 866 857 854 867 855 855 867 868 855 868 869 870 871 872 872 871 873 872 873 874 875 876 877 877 876 878 877 878 879 880 881 882 882 881 883 882 883 884 885 886 887 887 886 888 887 888 889 868 890 869 869 890 891 869 891 892 892 891 893 892 893 885 885 893 894 885 894 886 873 895 874 874 895 896 874 896 897 897 896 898 897 898 864 864 898 899 864 899 865 878 900 879 879 900 901 879 901 870 870 901 902 870 902 871 883 903 884 884 903 904 884 904 875 875 904 905 875 905 876 888 906 889 889 906 907 889 907 880 880 907 908 880 908 881 905 817 876 876 817 816 876 816 878 878 816 804 878 804 900 900 804 802 900 802 901 901 802 821 901 821 902 902 821 820 902 820 871 871 820 844 871 844 873 873 844 843 873 843 895 895 843 841 895 841 896 896 841 840 896 840 898 898 840 825 898 825 899 899 825 823 899 823 865 865 823 847 865 847 866 866 847 846 866 846 857 857 846 845 857 845 859 859 845 830 859 830 861 861 830 828 861 828 862 862 828 850 862 850 863 863 850 849 863 849 852 852 849 848 852 848 854 854 848 835 854 835 867 867 835 833 867 833 868 868 833 839 868 839 890 890 839 838 890 838 891 891 838 837 891 837 893 893 837 809 893 809 894 894 809 807 894 807 886 886 807 815 886 815 888 888 815 814 888 814 906 906 814 812 906 812 907 907 812 811 907 811 908 908 811 795 908 795 881 881 795 800 881 800 883 883 800 799 883 799 903 903 799 797 903 797 904 904 797 818 904 818 905 905 818 817 796 875 805 805 875 877 805 877 803 803 877 879 803 879 801 801 879 870 801 870 819 819 870 872 819 872 842 842 872 874 842 874 826 826 874 897 826 897 824 824 897 864 824 864 822 822 864 856 822 856 831 831 856 858 831 858 829 829 858 860 829 860 827 827 860 851 827 851 836 836 851 853 836 853 834 834 853 855 834 855 832 832 855 869 832 869 810 810 869 892 810 892 808 808 892 885 808 885 806 806 885 887 806 887 813 813 887 889 813 889 793 793 889 880 793 880 794 794 880 882 794 882 798 798 882 884 798 884 796 796 884 875 909 910 911 911 910 912 911 912 913 914 915 909 909 915 916 909 916 910 917 918 919 919 918 920 919 920 921 922 923 924 924 923 925 924 925 926 927 928 929 929 928 930 929 930 931 932 933 934 934 933 935 934 935 914 914 935 936 914 936 915 937 938 939 939 938 940 939 940 941 942 943 922 922 943 944 922 944 923 930 945 931 931 945 946 931 946 947 947 946 948 947 948 942 942 948 949 942 949 943 912 950 913 913 950 951 913 951 927 927 951 952 927 952 928 953 954 932 932 954 955 932 955 933 940 956 941 941 956 957 941 957 958 958 957 959 958 959 953 953 959 960 953 960 954 920 961 921 921 961 962 921 962 937 937 962 963 937 963 938 925 964 926 926 964 965 926 965 917 917 965 966 917 966 918 967 968 969 969 968 970 969 970 971 972 973 967 967 973 974 967 974 968 975 976 977 977 976 978 977 978 979 980 981 975 975 981 982 975 982 976 983 984 985 985 984 986 985 986 980 980 986 987 980 987 981 988 989 990 990 989 991 990 991 972 972 991 992 972 992 973 993 994 995 995 994 996 995 996 997 998 999 1000 1000 999 1001 1000 1001 993 993 1001 1002 993 1002 994 1003 1004 1005 1005 1004 1006 1005 1006 1007 1008 1009 1010 1010 1009 1011 1010 1011 1003 1003 1011 1012 1003 1012 1004 996 1013 997 997 1013 1014 997 1014 988 988 1014 1015 988 1015 989 978 1016 979 979 1016 1017 979 1017 998 998 1017 1018 998 1018 999 1006 1019 1007 1007 1019 1020 1007 1020 983 983 1020 1021 983 1021 984 970 1022 971 971 1022 1023 971 1023 1008 1008 1023 1024 1008 1024 1009 974 915 968 968 915 936 968 936 970 970 936 935 970 935 1022 1022 935 933 1022 933 1023 1023 933 955 1023 955 1024 1024 955 954 1024 954 1009 1009 954 960 1009 960 1011 1011 960 959 1011 959 1012 1012 959 957 1012 957 1004 1004 957 956 1004 956 1006 1006 956 940 1006 940 1019 1019 940 938 1019 938 1020 1020 938 963 1020 963 1021 1021 963 962 1021 962 984 984 962 961 984 961 986 986 961 920 986 920 987 987 920 918 987 918 981 981 918 966 981 966 982 982 966 965 982 965 976 976 965 964 976 964 978 978 964 925 978 925 1016 1016 925 923 1016 923 1017 1017 923 944 1017 944 1018 1018 944 943 1018 943 999 999 943 949 999 949 1001 1001 949 948 1001 948 1002 1002 948 946 1002 946 994 994 946 945 994 945 996 996 945 930 996 930 1013 1013 930 928 1013 928 1014 1014 928 952 1014 952 1015 1015 952 951 1015 951 989 989 951 950 989 950 991 991 950 912 991 912 992 992 912 910 992 910 973 973 910 916 973 916 974 974 916 915 909 967 914 914 967 969 914 969 934 934 969 971 934 971 932 932 971 1008 932 1008 953 953 1008 1010 953 1010 958 958 1010 1003 958 1003 941 941 1003 1005 941 1005 939 939 1005 1007 939 1007 937 937 1007 983 937 983 921 921 983 985 921 985 919 919 985 980 919 980 917 917 980 975 917 975 926 926 975 977 926 977 924 924 977 979 924 979 922 922 979 998 922 998 942 942 998 1000 942 1000 947 947 1000 993 947 993 931 931 993 995 931 995 929 929 995 997 929 997 927 927 997 988 927 988 913 913 988 990 913 990 911 911 990 972 911 972 909 909 972 967</p>
                </triangles>
            </mesh>
        </geometry>
    </library_geometries>
    <library_visual_scenes>
        <visual_scene id="VisualSceneNode" name="VisualScene">
            <node id="node" name="node">
                <instance_geometry url="#shape0-lib"/>
            </node>
        </visual_scene>
    </library_visual_scenes>
    <scene>
        <instance_visual_scene url="#VisualSceneNode"/>
    </scene>
</COLLADA>
